<svg width="33" height="27" viewBox="0 0 33 27" xmlns="http://www.w3.org/2000/svg">
<g clip-path="url(#clip0_994_43)">
<path d="M11.431 11.5575C7.45442 15.7269 2.95222 17.8872 1.37207 16.3821L3.02229 17.9538C4.59964 19.4597 9.10464 17.2993 13.0841 13.1293C17.0635 8.95919 19.008 4.35889 17.43 2.85302L15.7826 1.28058C17.3599 2.78645 15.4133 7.38745 11.431 11.5575Z"/>
<path d="M11.0331 11.175C14.9684 7.05186 16.8793 2.4894 15.302 0.983529L15.0974 0.788726C15.131 0.82096 15.1618 0.854595 15.192 0.889631C13.5256 -0.426342 9.16567 1.69197 5.32076 5.72468C1.47585 9.75738 -0.43855 14.207 0.953102 15.8103C0.917365 15.7816 0.883029 15.7521 0.848693 15.7206L1.05261 15.9161C2.62995 17.4206 7.09852 15.2988 11.0331 11.175Z"/>
<path d="M24.2349 14.008C22.2539 9.80367 21.9379 5.78848 23.5286 5.0387L21.8671 5.82141C20.2772 6.57049 20.5932 10.5864 22.5735 14.7907C24.5537 18.9951 27.4491 21.7981 29.0398 21.0469L30.7012 20.2649C29.1099 21.0139 26.2166 18.2124 24.2349 14.008Z"/>
<path d="M24.6384 13.8181C26.5963 17.9755 29.4735 20.7385 31.0641 19.9887L31.2694 19.892C31.2358 19.9078 31.2015 19.9218 31.1664 19.9341C32.638 19.0631 32.3128 15.1691 30.3956 11.1049C28.4784 7.04061 25.6881 4.30776 24.0778 4.89006C24.1096 4.8709 24.1424 4.85336 24.1759 4.83751L23.9741 4.93421C22.3814 5.68539 22.6799 9.66064 24.6384 13.8181Z"/>
<path d="M15.5185 24.1973C11.4893 25.3591 7.86648 25.0655 7.42712 23.5414L7.8861 25.1335C8.32546 26.6576 11.9504 26.9512 15.9775 25.7894C20.0046 24.6276 22.9147 22.4497 22.4775 20.9256L22.0185 19.3336C22.4578 20.8576 19.5477 23.0355 15.5185 24.1973Z"/>
<path d="M15.407 23.8105C19.3906 22.6613 22.2643 20.4947 21.825 18.9699L21.7682 18.773C21.7773 18.8052 21.7843 18.8381 21.7906 18.8711C21.2252 17.4332 17.711 17.1669 13.8149 18.2909C9.9189 19.4148 7.08655 21.5107 7.37314 23.0285C7.36123 22.997 7.34932 22.9662 7.34021 22.9339L7.39697 23.1308C7.83633 24.6549 11.4226 24.9597 15.407 23.8105Z"/>
</g>
<defs>
<clipPath id="clip0_994_43">
<rect width="32" height="26" transform="translate(0.5 0.5)"/>
</clipPath>
</defs>
</svg>
