<svg width="21" height="24" viewBox="0 0 21 24" xmlns="http://www.w3.org/2000/svg">
<path id="Vector" d="M6.15053 24C5.19728 24.0007 4.26525 23.7202 3.47242 23.1939C2.6796 22.6676 2.06162 21.9193 1.69673 21.0435C1.33184 20.1678 1.23644 19.2041 1.4226 18.2745C1.60877 17.3448 2.06813 16.491 2.74254 15.8211L9.55851 9.04328C9.8598 8.7437 10.2684 8.5754 10.6945 8.57541C11.1206 8.57541 11.5292 8.74373 11.8305 9.04332C12.1317 9.34291 12.301 9.74924 12.301 10.1729C12.301 10.5966 12.1317 11.0029 11.8305 11.3025L5.01453 18.0803C4.86416 18.2284 4.74469 18.4046 4.66299 18.5987C4.58129 18.7928 4.53896 19.0011 4.53845 19.2115C4.53793 19.422 4.57923 19.6305 4.65998 19.825C4.74072 20.0195 4.85932 20.1963 5.00896 20.3451C5.1586 20.4939 5.33634 20.6118 5.53195 20.6921C5.72757 20.7724 5.93721 20.8135 6.14884 20.813C6.36047 20.8125 6.56991 20.7704 6.76514 20.6892C6.96036 20.6079 7.13752 20.4891 7.28644 20.3396L16.3745 11.3025C16.8221 10.8576 17.1773 10.3293 17.4196 9.74781C17.6619 9.16633 17.7866 8.54308 17.7866 7.91365C17.7866 7.28423 17.6619 6.66098 17.4196 6.0795C17.1773 5.49802 16.8221 4.96971 16.3745 4.52476C15.4565 3.65276 14.2359 3.16617 12.9665 3.16617C11.697 3.16617 10.4764 3.65276 9.55851 4.52476L2.74254 11.3025C2.59336 11.4509 2.41626 11.5686 2.22134 11.6489C2.02643 11.7292 1.81752 11.7705 1.60654 11.7705C1.39557 11.7705 1.18666 11.7292 0.991739 11.6489C0.796822 11.5686 0.619717 11.4509 0.470535 11.3026C0.321353 11.1542 0.203017 10.9781 0.122282 10.7843C0.0415473 10.5904 -4.15897e-06 10.3827 3.12226e-10 10.1729C4.15959e-06 9.96312 0.0415637 9.75538 0.122306 9.56155C0.203048 9.36773 0.321392 9.19162 0.47058 9.04328L7.28644 2.26549C10.3273 -0.755163 15.6182 -0.755163 18.6464 2.26549C19.3926 3.00708 19.9845 3.88759 20.3883 4.85672C20.7921 5.82586 21 6.86462 21 7.91365C21 8.96269 20.7921 10.0015 20.3883 10.9706C19.9845 11.9397 19.3926 12.8202 18.6464 13.5618L9.55851 22.5989C9.1111 23.0439 8.57976 23.3967 7.99494 23.6372C7.41013 23.8776 6.78335 24.0009 6.15053 24Z"/>
</svg>
