<svg width="150" height="72" viewBox="0 0 150 72" fill="none" xmlns="http://www.w3.org/2000/svg">
<g id="_&#208;&#161;&#208;&#187;&#208;&#190;&#208;&#185;_3">
<path id="Vector" d="M32.0333 33.0571L27.0801 20.4271L35.3094 31.2402L32.0333 33.0571Z" fill="#1CC3CD"/>
<path id="Vector_2" d="M87.2432 44.7608L92.957 50.026L98.3197 45.0663L94.413 43.9482L87.2432 44.7608Z" fill="#262626"/>
<path id="Vector_3" d="M52.5709 62.8673C47.7054 65.8866 41.9657 67.632 35.8164 67.632C18.2462 67.632 4.00091 53.3866 4.00091 35.8164C4.00091 18.2462 18.2462 4.00091 35.8164 4.00091C42.3947 4.00091 48.5049 5.99649 53.5751 9.41563H45.0598L47.9004 13.0915L49.6522 15.3569L47.6404 24.974L47.0651 27.7236H56.0485L58.3203 30.665L60.2379 33.1448L59.8739 34.8739H59.8771L58.2716 42.5507L57.8523 44.556H57.8491L57.6996 45.2841H137.448L137.822 43.4802L138.108 42.1054L139.405 44.2115L140.064 45.2841H150L147.514 41.7122L146.041 39.5996C146.165 39.5053 146.285 39.4078 146.409 39.3006C147.387 38.4425 148.037 37.2855 148.346 35.8652V35.8554L148.349 35.8457L148.966 32.8686C149.285 31.3443 148.983 29.9337 148.092 28.7864C147.455 27.9674 146.272 26.9891 144.26 26.9891H111.483L110.833 28.1656L109.195 31.12L109.078 30.5382L108.707 28.7084H102.831L102.408 27.6911L101.011 24.5222L98.5602 18.9645L103.526 13.1825L106.764 9.41563H96.0056L95.3198 10.3159L94.842 10.9432L94.8193 10.8782L94.257 9.41238H82.5663L82.5728 9.41888C82.4818 9.41563 82.3908 9.41238 82.2998 9.41238H63.1045L62.4415 10.0527L61.5542 10.9107C61.4177 10.7677 61.278 10.6279 61.1382 10.4849C57.8491 7.19579 54.0204 4.61518 49.7562 2.81136C45.3393 0.949038 40.6494 0 35.8164 0C30.9835 0 26.2936 0.949038 21.8734 2.81786C17.6092 4.62168 13.7773 7.20554 10.4914 10.4914C7.20229 13.7806 4.62169 17.6092 2.81786 21.8734C0.949038 26.2936 0 30.9835 0 35.8164C0 40.6494 0.949038 45.3393 2.81786 49.7595C4.62169 54.0237 7.20229 57.8556 10.4914 61.1414C13.7806 64.4306 17.6092 67.0112 21.8734 68.815C26.2903 70.6838 30.9835 71.6329 35.8164 71.6329C40.6494 71.6329 45.3393 70.6838 49.7595 68.815C53.2469 67.3394 56.445 65.3439 59.2921 62.8673" fill="#262626"/>
<path id="Vector_4" d="M95.8983 18.5712L101.804 11.6972H97.1464L94.1855 15.5941L92.6969 11.6972H91.6667H88.228H87.2205L89.6841 14.8888L91.3124 18.4575L85.3549 25.4453H89.9766L92.9505 21.5288L94.5008 25.4453H98.9307L95.8983 18.5712Z" fill="white"/>
<path id="Vector_5" d="M67.5832 11.6972H64.0308L59.1686 16.4001L55.9185 11.6972H55.8762H52.7496H49.7075L52.0996 14.7978L49.8732 25.4453H53.6174L54.8492 19.4975L56.5067 22.1236H59.4481L62.214 19.478L60.9659 25.4453H64.7101L67.5832 11.6972Z" fill="#1CC3CD"/>
<path id="Vector_6" d="M84.7764 14.8304C84.9551 13.9528 84.8089 13.2118 84.3344 12.6073C83.8598 12.0028 83.1838 11.7005 82.3063 11.7005H69.335L71.8896 15.0091L69.712 25.4486H73.4529L74.6035 19.9688H79.9694L78.8189 25.4486H82.5598L84.7731 14.8336L84.7764 14.8304ZM75.1885 17.1802L75.5298 15.4999C75.6013 15.1814 75.7963 15.0221 76.1148 15.0221H80.5252C80.8437 15.0221 80.9672 15.1814 80.8957 15.4999L80.5545 17.1802H75.1885Z" fill="white"/>
<path id="Vector_7" d="M75.2438 32.4038C75.3348 31.9975 75.338 31.5945 75.2503 31.2013C75.1268 30.6292 74.844 30.1645 74.4052 29.8069C73.9665 29.4494 73.4204 29.2739 72.7704 29.2739H60.1242L62.6853 32.5891V32.5956H62.6918H71.2168C71.3176 32.5956 71.3794 32.6476 71.4021 32.7483C71.4086 32.7873 71.4119 32.8198 71.4021 32.8426L70.9276 35.1079C70.8853 35.2737 70.7911 35.3549 70.6383 35.3549L62.1067 35.3419L60.5012 43.0155H64.2421L65.1716 38.5205H71.2038C72.0814 38.5205 72.8257 38.215 73.4302 37.604C74.038 36.993 74.4312 36.2552 74.6132 35.3907L75.2373 32.4006L75.2438 32.4038Z" fill="#1CC3CD"/>
<path id="Vector_8" d="M91.6244 32.4038C91.8032 31.5263 91.6569 30.7852 91.1824 30.1807C90.7079 29.5762 90.0319 29.2739 89.1543 29.2739H76.0986L78.6629 32.5923L77.1483 39.8921C76.9566 40.7696 77.0996 41.5107 77.5806 42.1152C78.0616 42.7197 78.7409 43.022 79.6184 43.022H86.6647C87.5423 43.022 88.2833 42.7197 88.8846 42.1152C89.4858 41.5107 89.8824 40.7696 90.0741 39.8921L91.6277 32.4071L91.6244 32.4038ZM86.1155 39.6971H81.172C81.0063 39.6971 80.938 39.6158 80.9672 39.4501L82.3486 32.8426C82.3908 32.6768 82.4916 32.5956 82.6573 32.5956H87.6008C87.7665 32.5956 87.8283 32.6801 87.7893 32.8426L86.408 39.4501C86.3787 39.6158 86.2845 39.6971 86.1187 39.6971" fill="white"/>
<path id="Vector_9" d="M112.832 29.2707L108.19 37.6528L106.845 30.99H103.887L99.7335 37.8445L98.6479 29.2707H97.1269H94.6568H92.6775L95.1541 32.4753L96.7856 43.0187H100.374L104.287 36.2032L105.34 43.0187H108.928L116.823 29.2707H112.832Z" fill="white"/>
<path id="Vector_10" d="M124.779 32.5956H127.187H129.901L130.483 29.2707H124.512H121.73H118.344L120.911 32.5956H121.035H123.814H124.779Z" fill="white"/>
<path id="Vector_11" d="M128.214 39.6971H120.499L120.95 37.539H127.805L128.387 34.7504H123.94H121.532H117.791L116.062 43.0187H127.519L128.214 39.6971Z" fill="white"/>
<path id="Vector_12" d="M133.99 32.5956H142.713C142.879 32.5956 142.941 32.6801 142.902 32.8426L142.434 35.0949C142.404 35.2607 142.31 35.3419 142.144 35.3419H130.892L132.908 37.9518L131.848 43.0187H135.589L136.525 38.5141H138.573L141.348 43.0187H145.645L142.508 38.5141C142.508 38.5141 143.678 38.6668 144.907 37.5878C145.567 37.0092 145.934 36.2357 146.119 35.3842L146.737 32.4071C146.919 31.5425 146.773 30.8048 146.298 30.1937C145.824 29.5827 145.144 29.2772 144.267 29.2772H132.17L133.99 32.5988V32.5956Z" fill="white"/>
<path id="Vector_13" d="M32.277 60.1014C31.5653 59.9974 30.8632 59.8674 30.1742 59.7016C29.4754 59.5391 28.7896 59.3441 28.1136 59.1199L27.0151 62.448C27.7854 62.7048 28.5719 62.9258 29.3682 63.1143C30.158 63.2995 30.9607 63.4523 31.7733 63.5725C32.576 63.6895 33.3886 63.7708 34.2076 63.8163L34.4091 60.3159L34.6106 56.8155L32.2803 60.1014H32.277Z" fill="#262626"/>
<path id="Vector_14" d="M26.7356 13.0168C27.3954 12.7535 28.0681 12.5195 28.7572 12.3147C29.4364 12.11 30.1287 11.9377 30.834 11.7915C31.5263 11.6485 32.2316 11.5347 32.9466 11.4502C33.6616 11.3657 34.3734 11.3137 35.0819 11.2909C35.8002 11.2682 36.5152 11.2779 37.2238 11.3169C37.942 11.3559 38.6506 11.4274 39.3526 11.5314C40.0644 11.6355 40.7664 11.7655 41.4554 11.9312L42.2615 8.51858C41.4717 8.33332 40.6689 8.18057 39.8564 8.06356C39.0536 7.94656 38.241 7.8653 37.422 7.8198C36.6127 7.7743 35.7969 7.76455 34.9747 7.79055C34.1654 7.81655 33.3528 7.87505 32.5338 7.97256C31.7148 8.07006 30.912 8.20007 30.119 8.36257C29.3129 8.52833 28.5199 8.72659 27.7464 8.9606C26.9598 9.19461 26.1896 9.46437 25.4355 9.76338C24.6718 10.0656 23.9275 10.4004 23.2027 10.7644L24.779 13.8975L26.3553 17.0307L26.7323 13.0233L26.7356 13.0168Z" fill="#1CC3CD"/>
<path id="Vector_15" d="M24.1842 57.4266C23.5537 57.0886 22.9427 56.7213 22.3479 56.328C21.7499 55.938 21.1713 55.5187 20.6123 55.0767C20.0533 54.6347 19.5105 54.1699 18.9905 53.6792L16.5887 56.2305C17.1834 56.7895 17.801 57.3226 18.4412 57.8263C19.0815 58.3301 19.7445 58.8111 20.4271 59.2564C21.1096 59.7049 21.8084 60.1209 22.5267 60.5109C23.2449 60.8977 23.9795 61.252 24.7302 61.577L26.1148 58.3561L27.5026 55.1352L24.1875 57.4233L24.1842 57.4266Z" fill="#262626"/>
<path id="Vector_16" d="M14.2063 24.1875C14.5443 23.5569 14.9116 22.9427 15.3049 22.3479C15.6981 21.7499 16.1141 21.1713 16.5562 20.6123C16.9982 20.0533 17.4629 19.5105 17.9537 18.9905C18.4412 18.4705 18.9548 17.9732 19.4878 17.4987C20.0175 17.0242 20.5733 16.5724 21.1453 16.1434C21.7174 15.7176 22.3056 15.3146 22.9167 14.9376L21.0738 11.954C20.3783 12.383 19.7023 12.8445 19.0523 13.332C18.3957 13.8196 17.7652 14.3363 17.1574 14.8791C16.5464 15.4219 15.9614 15.9939 15.4056 16.5854C14.8466 17.1802 14.3136 17.7977 13.8065 18.438C13.3028 19.0783 12.8218 19.738 12.3765 20.4206C11.928 21.1031 11.512 21.8019 11.1219 22.5234C10.7352 23.2384 10.3809 23.973 10.0559 24.727L13.2768 26.1148L16.4977 27.5026L14.2096 24.1907L14.2063 24.1875Z" fill="#1CC3CD"/>
<path id="Vector_17" d="M16.1434 50.4875C15.7176 49.9155 15.3146 49.3273 14.9376 48.7162C14.5638 48.1117 14.2161 47.4877 13.8943 46.8474C13.5758 46.2136 13.2833 45.5604 13.0168 44.8941C12.7535 44.2343 12.5195 43.5615 12.3147 42.8725L8.95735 43.88C9.19136 44.6666 9.46112 45.4368 9.76013 46.1909C10.0624 46.9547 10.3972 47.6989 10.7644 48.4237C11.1317 49.155 11.5315 49.87 11.9572 50.5591C12.3862 51.2546 12.8478 51.9306 13.3353 52.5806C13.8228 53.2372 14.3396 53.8677 14.8823 54.4755L17.4987 52.1419L20.115 49.8083L16.1434 50.4843V50.4875Z" fill="#262626"/>
<path id="Vector_18" d="M11.4502 38.683C11.3657 37.968 11.3137 37.2562 11.291 36.5477C11.2682 35.8294 11.278 35.1144 11.317 34.4059C11.356 33.6876 11.4275 32.979 11.5315 32.277C11.6355 31.5652 11.7655 30.8632 11.9312 30.1742C12.0937 29.4754 12.2887 28.7896 12.513 28.1136L9.18487 27.0118C8.92811 27.7821 8.7071 28.5686 8.51859 29.3682C8.33334 30.1579 8.18058 30.9607 8.06358 31.7733C7.94657 32.576 7.86532 33.3886 7.81982 34.2076C7.77431 35.0169 7.76456 35.8327 7.79056 36.6549C7.81657 37.461 7.87507 38.2768 7.97257 39.0925C8.07008 39.9116 8.20008 40.7176 8.36259 41.5074L11.7947 40.7956L15.2269 40.0838L11.4535 38.683H11.4502Z" fill="#262626"/>
<path id="Vector_19" d="M63.1045 46.8409C63.6148 46.8409 64.0081 47.0196 64.2908 47.3739C64.5703 47.7314 64.6581 48.1637 64.5508 48.6707L63.9171 51.7453H60.1762L60.4589 50.312C60.4882 50.2113 60.4524 50.1593 60.3484 50.1593H55.3075C55.1417 50.1593 55.0377 50.2438 54.9987 50.4063L53.6174 57.0105C53.5882 57.1763 53.6597 57.2575 53.8222 57.2575H58.8631C58.9639 57.2575 59.0224 57.2055 59.0386 57.1048L59.3409 55.6715H63.0818L62.448 58.7461C62.3408 59.2564 62.071 59.6886 61.6387 60.0429C61.2065 60.4004 60.7352 60.5759 60.2282 60.5759H52.2654C51.3878 60.5759 50.7085 60.2737 50.2275 59.6691C49.7465 59.0646 49.6035 58.3236 49.7953 57.446L51.3456 49.9675L48.921 46.8311H63.098M63.098 44.5398H44.2538L47.1074 48.2319L48.3847 50.4713L47.0099 57.1145C46.5841 59.0744 45.3816 60.5142 46.0186 61.3137C46.6589 62.123 42.9277 62.864 44.9298 62.864H65.2626C66.2994 62.864 62.253 62.4967 63.0915 61.8045C63.9203 61.1219 64.4728 60.2217 64.6841 59.2076V59.2011L65.3179 56.1265L65.7534 54.0204H65.7729L66.1499 52.1938L66.7837 49.1192C67.0242 47.9557 66.7739 46.8246 66.0784 45.9406C65.3601 45.0306 64.3006 44.53 63.0915 44.53L63.098 44.5398Z" fill="#262626"/>
<path id="Vector_20" d="M47.2764 46.8409L44.4033 60.5857H40.6624L42.879 49.9805L40.4511 46.8376H47.2764M50.0975 44.5463H35.7872L38.6408 48.2384L40.4219 50.546L38.4198 60.1176L37.8413 62.877H46.2656L46.6459 61.0537L49.519 47.3089L50.0975 44.5495V44.5463Z" fill="#262626"/>
<path id="Vector_21" d="M78.5881 46.8376L78.0064 50.1592H69.0165L66.4489 46.8376H78.5881ZM82.3485 44.5463H61.785L64.6386 48.2384L67.2062 51.56L67.8952 52.4506H78.0096L78.8254 51.8753L82.0235 50.026L84.3409 47.1334L86.6387 44.5463H82.3485Z" fill="#262626"/>
<path id="Vector_22" d="M72.8842 50.1592H75.2925H78.0064L78.5881 46.8376H72.6176H69.8355H66.4489L69.0165 50.1592H69.14H71.9189H72.8842Z" fill="white"/>
<path id="Vector_23" d="M76.4918 52.3173L75.91 55.106H69.0555L68.6037 57.264H76.3163L75.6208 60.5857H64.1641L65.8931 52.3173H76.4886M79.6022 50.026H64.0308L63.6505 51.8493L61.9215 60.1177L61.343 62.877H93.997L79.5989 50.0292L79.6022 50.026Z" fill="#262626"/>
<path id="Vector_24" d="M76.3195 57.264H68.607L69.0555 55.1059H75.91L76.4918 52.3173H72.0456H69.6373H65.8964L64.1673 60.5857H75.624L76.3195 57.264Z" fill="white"/>
<path id="Vector_25" d="M63.085 55.678H59.3441L59.0419 57.1113C59.0256 57.212 58.9671 57.264 58.8664 57.264H53.8254C53.6597 57.264 53.5914 57.1828 53.6207 57.017L55.002 50.4128C55.0442 50.247 55.145 50.1658 55.3107 50.1658H60.3517C60.4524 50.1658 60.4914 50.2178 60.4622 50.3185L60.1794 51.7518H63.9203L64.5541 48.6772C64.6614 48.1669 64.5736 47.7347 64.2941 47.3804C64.0146 47.0229 63.6181 46.8474 63.111 46.8474H48.934L51.3586 49.9838L49.8083 57.4623C49.6165 58.3398 49.7595 59.0809 50.2405 59.6854C50.7215 60.2899 51.4008 60.5922 52.2784 60.5922H60.2412C60.7515 60.5922 61.2195 60.4134 61.6517 60.0592C62.084 59.7016 62.3538 59.2694 62.461 58.7624L63.0948 55.6877L63.085 55.678Z" fill="#1CC3CD"/>
<path id="Vector_26" d="M44.4033 60.5857L47.2764 46.8409H46.6199H43.5355H40.4511L42.879 49.9805L40.6624 60.5857H44.4033Z" fill="white"/>
<path id="Vector_27" d="M86.4047 60.5824C85.9757 60.5824 85.7092 60.4329 85.7092 60.1892V59.1069L84.8349 59.6106C84.7601 59.6529 84.6074 59.6984 84.4091 59.5326C84.3181 59.4546 84.2239 59.3376 84.1459 59.2044C83.9313 58.8339 83.9281 58.5251 84.1394 58.4048L85.7092 57.4981V54.9142L83.4698 56.2045V58.0181C83.4698 58.2618 83.2033 58.4113 82.7743 58.4113C82.3453 58.4113 82.0788 58.2586 82.0788 58.0181V57.0105L81.1427 57.5501C81.068 57.5923 80.9152 57.6378 80.717 57.4721C80.626 57.3941 80.5317 57.2803 80.4537 57.1438C80.3757 57.0073 80.3205 56.8675 80.301 56.7505C80.2555 56.4938 80.3725 56.3865 80.4472 56.3443L81.3832 55.8047L80.509 55.301C80.2977 55.1807 80.301 54.872 80.5155 54.5014C80.73 54.1309 80.9932 53.9749 81.2045 54.0952L82.7743 55.002L85.0136 53.7117L82.7743 52.4181L81.2045 53.3249C80.9932 53.4484 80.73 53.2924 80.5155 52.9186C80.301 52.5481 80.2977 52.2393 80.509 52.1191L81.3832 51.6153L80.4472 51.0726C80.3725 51.0303 80.2587 50.9198 80.301 50.6663C80.3205 50.546 80.3757 50.4095 80.4537 50.273C80.6682 49.9025 80.9315 49.7465 81.1427 49.8668L82.0788 50.4095V49.402C82.0788 49.1582 82.3453 49.0087 82.7743 49.0087C83.2033 49.0087 83.4698 49.1582 83.4698 49.402V51.2156L85.7092 52.5091V49.9253L84.1394 49.0185C84.0809 48.986 83.9833 48.9015 83.9833 48.7162C83.9833 48.4237 84.2434 47.9752 84.4969 47.8289C84.6561 47.7379 84.7764 47.7802 84.8349 47.8127L85.7092 48.3164V47.2341C85.7092 46.9904 85.9757 46.8409 86.4047 46.8409C86.8337 46.8409 87.1002 46.9936 87.1002 47.2341V48.3164L87.9745 47.8127C88.033 47.7802 88.1533 47.7379 88.3125 47.8289C88.566 47.9752 88.826 48.4237 88.826 48.7162C88.826 48.9015 88.7285 48.9827 88.67 49.0185L87.1002 49.9253V52.5091L89.3396 51.2156V49.402C89.3396 49.1582 89.6061 49.0087 90.0351 49.0087C90.4641 49.0087 90.7306 49.1582 90.7306 49.402V50.4095L91.6667 49.8668C91.7252 49.8343 91.8454 49.7887 92.0047 49.883C92.2582 50.0293 92.5182 50.4778 92.5182 50.7703C92.5182 50.9555 92.4207 51.0368 92.3622 51.0726L91.4261 51.6153L92.3004 52.1191C92.5117 52.2393 92.5084 52.5481 92.2939 52.9186C92.0794 53.2924 91.8162 53.4451 91.6049 53.3249L90.0351 52.4181L87.7958 53.7117L90.0351 55.002L91.6049 54.0952C91.8162 53.9749 92.0794 54.1277 92.2939 54.5014C92.5084 54.872 92.5117 55.1807 92.3004 55.301L91.4261 55.8047L92.3622 56.3443C92.4207 56.3768 92.5182 56.4613 92.5182 56.6465C92.5182 56.939 92.2582 57.3876 92.0047 57.5338C91.8454 57.6248 91.7252 57.5826 91.6667 57.5501L90.7306 57.0105V58.0181C90.7306 58.2618 90.4641 58.4113 90.0351 58.4113C89.6061 58.4113 89.3396 58.2586 89.3396 58.0181V56.2045L87.1002 54.9142V57.4981L88.67 58.4048C88.7285 58.4373 88.826 58.5219 88.826 58.7071C88.826 58.9996 88.566 59.4481 88.3125 59.5944C88.1533 59.6854 88.033 59.6431 87.9745 59.6106L87.1002 59.1069V60.1892C87.1002 60.4329 86.8337 60.5824 86.4047 60.5824ZM86.0699 60.1599C86.1122 60.1859 86.2292 60.2217 86.4047 60.2217C86.5802 60.2217 86.6972 60.1859 86.7395 60.1599V58.4796L88.1305 59.2824C88.1728 59.2596 88.2638 59.1751 88.3515 59.0256C88.4393 58.8761 88.4653 58.7559 88.4653 58.7071L86.7395 57.7093V54.2902L89.7036 55.9998V57.9921C89.7458 58.0181 89.8628 58.0538 90.0383 58.0538C90.2139 58.0538 90.3309 58.0181 90.3731 57.9921V56.3865L91.8292 57.2283C91.8714 57.2055 91.9624 57.121 92.0502 56.9715C92.1379 56.822 92.1639 56.7018 92.1639 56.653L90.7079 55.8112L92.0989 55.0085C92.0989 54.9597 92.0729 54.8395 91.9852 54.6899C91.8974 54.5404 91.8097 54.4559 91.7642 54.4332L90.0383 55.431L87.0742 53.7214L90.0383 52.0118L91.7642 53.0096C91.8064 52.9869 91.8974 52.9024 91.9852 52.7529C92.0729 52.6034 92.0989 52.4831 92.0989 52.4344L90.7079 51.6316L92.1639 50.7898C92.1639 50.741 92.1379 50.6208 92.0502 50.4713C91.9624 50.3218 91.8747 50.2373 91.8292 50.2145L90.3731 51.0563V49.4507C90.3309 49.4247 90.2139 49.389 90.0383 49.389C89.8628 49.389 89.7458 49.4247 89.7036 49.4507V51.4431L86.7395 53.1526V49.7302L88.4653 48.7325C88.4653 48.6837 88.4393 48.5635 88.3515 48.4139C88.2638 48.2644 88.176 48.1799 88.1305 48.1572L86.7395 48.96V47.2797C86.6972 47.2536 86.5802 47.2179 86.4047 47.2179C86.2292 47.2179 86.1122 47.2536 86.0699 47.2797V48.96L84.6789 48.1572C84.6366 48.1799 84.5456 48.2644 84.4579 48.4139C84.3701 48.5635 84.3441 48.6837 84.3441 48.7325L86.0699 49.7302V53.1526L83.1058 51.4431V49.4507C83.0636 49.4247 82.9466 49.389 82.7711 49.389C82.5955 49.389 82.4785 49.4247 82.4363 49.4507V51.0563L80.9802 50.2145C80.938 50.2373 80.847 50.3218 80.7592 50.4713C80.6715 50.6208 80.6455 50.741 80.6455 50.7898L82.1015 51.6316L80.7105 52.4344C80.7105 52.4831 80.7365 52.6034 80.8242 52.7529C80.912 52.9024 80.9997 52.9869 81.0452 53.0096L82.7711 52.0118L85.7352 53.7214L82.7711 55.431L81.0452 54.4332C81.003 54.4559 80.912 54.5404 80.8242 54.6899C80.7365 54.8395 80.7105 54.9597 80.7105 55.0085L82.1015 55.8112L80.6455 56.653C80.6455 56.7018 80.6715 56.822 80.7592 56.9715C80.847 57.121 80.9347 57.2055 80.9802 57.2283L82.4363 56.3865V57.9921C82.4785 58.0181 82.5955 58.0538 82.7711 58.0538C82.9466 58.0538 83.0636 58.0181 83.1058 57.9921V55.9998L86.0699 54.2902V57.7093L84.3441 58.7071C84.3441 58.7559 84.3701 58.8761 84.4579 59.0256C84.5456 59.1751 84.6334 59.2596 84.6789 59.2824L86.0699 58.4796V60.1599Z" fill="#1CC3CD"/>
<path id="Vector_28" d="M86.4047 46.8376C86.8337 46.8376 87.1002 46.9904 87.1002 47.2309V48.3132L87.9745 47.8094C88.007 47.7899 88.059 47.7704 88.124 47.7704C88.1793 47.7704 88.241 47.7834 88.3125 47.8257C88.566 47.9719 88.826 48.4205 88.826 48.713C88.826 48.8982 88.7285 48.9795 88.67 49.0152L87.1002 49.922V52.5059L89.3396 51.2123V49.3987C89.3396 49.155 89.6061 49.0055 90.0351 49.0055C90.4641 49.0055 90.7306 49.155 90.7306 49.3987V50.4063L91.6667 49.8635C91.6992 49.844 91.7512 49.8245 91.8162 49.8245C91.8714 49.8245 91.9332 49.8375 92.0047 49.8798C92.2582 50.026 92.5182 50.4745 92.5182 50.767C92.5182 50.9523 92.4207 51.0336 92.3622 51.0693L91.4261 51.6121L92.3004 52.1158C92.5117 52.2361 92.5084 52.5449 92.2939 52.9154C92.1282 53.2046 91.9299 53.3639 91.7544 53.3639C91.7024 53.3639 91.6537 53.3509 91.6049 53.3216L90.0351 52.4149L87.7957 53.7084L90.0351 54.9987L91.6049 54.0919C91.6537 54.0659 91.7024 54.0497 91.7544 54.0497C91.9332 54.0497 92.1282 54.2089 92.2939 54.4949C92.5084 54.8655 92.5117 55.1742 92.3004 55.2945L91.4261 55.7982L92.3622 56.3378C92.4207 56.3703 92.5182 56.4548 92.5182 56.64C92.5182 56.9325 92.2582 57.3811 92.0047 57.5273C91.9332 57.5696 91.8682 57.5826 91.8162 57.5826C91.7512 57.5826 91.6992 57.5598 91.6667 57.5436L90.7306 57.004V58.0116C90.7306 58.2553 90.4641 58.4048 90.0351 58.4048C89.6061 58.4048 89.3396 58.2521 89.3396 58.0116V56.198L87.1002 54.9077V57.4916L88.67 58.3983C88.7285 58.4308 88.826 58.5154 88.826 58.7006C88.826 58.9931 88.566 59.4416 88.3125 59.5879C88.241 59.6301 88.176 59.6431 88.124 59.6431C88.059 59.6431 88.007 59.6204 87.9745 59.6041L87.1002 59.1004V60.1827C87.1002 60.4264 86.8337 60.5759 86.4047 60.5759C85.9757 60.5759 85.7092 60.4264 85.7092 60.1827V59.1004L84.8349 59.6041C84.8024 59.6236 84.7504 59.6431 84.6854 59.6431C84.6106 59.6431 84.5164 59.6139 84.4091 59.5261C84.3181 59.4481 84.2239 59.3311 84.1458 59.1979C83.9313 58.8274 83.9281 58.5186 84.1394 58.3983L85.7092 57.4916V54.9077L83.4698 56.198V58.0116C83.4698 58.2553 83.2033 58.4048 82.7743 58.4048C82.3453 58.4048 82.0788 58.2521 82.0788 58.0116V57.004L81.1427 57.5436C81.1102 57.5631 81.0582 57.5826 80.9932 57.5826C80.9185 57.5826 80.8242 57.5533 80.717 57.4656C80.626 57.3876 80.5317 57.2738 80.4537 57.1373C80.3757 57.0008 80.3205 56.861 80.3009 56.744C80.2554 56.4873 80.3725 56.38 80.4472 56.3378L81.3832 55.7982L80.509 55.2945C80.2977 55.1742 80.3009 54.8655 80.5155 54.4949C80.6812 54.2057 80.8795 54.0497 81.055 54.0497C81.107 54.0497 81.1557 54.0627 81.2045 54.0919L82.7743 54.9987L85.0136 53.7084L82.7743 52.4149L81.2045 53.3216C81.1557 53.3476 81.107 53.3639 81.055 53.3639C80.8762 53.3639 80.6812 53.2046 80.5155 52.9186C80.3009 52.5481 80.2977 52.2394 80.509 52.1191L81.3832 51.6153L80.4472 51.0726C80.3725 51.0303 80.2587 50.9198 80.3009 50.6663C80.3205 50.546 80.3757 50.4095 80.4537 50.273C80.6195 49.9838 80.8177 49.8278 80.9932 49.8278C81.0452 49.8278 81.094 49.8408 81.1427 49.87L82.0788 50.4128V49.4052C82.0788 49.1615 82.3453 49.012 82.7743 49.012C83.2033 49.012 83.4698 49.1615 83.4698 49.4052V51.2188L85.7092 52.5124V49.9285L84.1394 49.0217C84.0809 48.9892 83.9833 48.9047 83.9833 48.7195C83.9833 48.4269 84.2434 47.9784 84.4969 47.8322C84.5684 47.7899 84.6334 47.7769 84.6854 47.7769C84.7504 47.7769 84.8024 47.7997 84.8349 47.8159L85.7092 48.3197V47.2374C85.7092 46.9936 85.9757 46.8441 86.4047 46.8441M86.0699 48.9502L84.6789 48.1474C84.6366 48.1702 84.5456 48.2547 84.4579 48.4042C84.3701 48.5537 84.3441 48.674 84.3441 48.7227L86.0699 49.7205V53.1429L83.1058 51.4333V49.441C83.0636 49.415 82.9466 49.3792 82.771 49.3792C82.5955 49.3792 82.4785 49.415 82.4363 49.441V51.0466L80.9802 50.2048C80.938 50.2275 80.847 50.312 80.7592 50.4615C80.6715 50.611 80.6455 50.7313 80.6455 50.78L82.1015 51.6218L80.7105 52.4246C80.7105 52.4734 80.7365 52.5936 80.8242 52.7431C80.912 52.8926 80.9997 52.9771 81.0452 52.9999L82.771 52.0021L85.7352 53.7117L82.771 55.4212L81.0452 54.4234C81.003 54.4462 80.912 54.5307 80.8242 54.6802C80.7365 54.8297 80.7105 54.95 80.7105 54.9987L82.1015 55.8015L80.6455 56.6433C80.6455 56.692 80.6715 56.8123 80.7592 56.9618C80.847 57.1113 80.9347 57.1958 80.9802 57.2186L82.4363 56.3768V57.9823C82.4785 58.0083 82.5955 58.0441 82.771 58.0441C82.9466 58.0441 83.0636 58.0083 83.1058 57.9823V55.99L86.0699 54.2804V57.6996L84.3441 58.6974C84.3441 58.7461 84.3701 58.8664 84.4579 59.0159C84.5456 59.1654 84.6334 59.2499 84.6789 59.2726L86.0699 58.4698V60.1502C86.1122 60.1762 86.2292 60.2119 86.4047 60.2119C86.5802 60.2119 86.6972 60.1762 86.7395 60.1502V58.4698L88.1305 59.2726C88.1728 59.2499 88.2638 59.1654 88.3515 59.0159C88.4393 58.8664 88.4653 58.7461 88.4653 58.6974L86.7395 57.6996V54.2804L89.7036 55.99V57.9823C89.7458 58.0083 89.8628 58.0441 90.0383 58.0441C90.2138 58.0441 90.3308 58.0083 90.3731 57.9823V56.3768L91.8292 57.2186C91.8714 57.1958 91.9624 57.1113 92.0502 56.9618C92.1379 56.8123 92.1639 56.692 92.1639 56.6433L90.7079 55.8015L92.0989 54.9987C92.0989 54.95 92.0729 54.8297 91.9852 54.6802C91.8974 54.5307 91.8097 54.4462 91.7642 54.4234L90.0383 55.4212L87.0742 53.7117L90.0383 52.0021L91.7642 52.9999C91.8064 52.9771 91.8974 52.8926 91.9852 52.7431C92.0729 52.5936 92.0989 52.4734 92.0989 52.4246L90.7079 51.6218L92.1639 50.78C92.1639 50.7313 92.1379 50.611 92.0502 50.4615C91.9624 50.312 91.8747 50.2275 91.8292 50.2048L90.3731 51.0466V49.441C90.3308 49.415 90.2138 49.3792 90.0383 49.3792C89.8628 49.3792 89.7458 49.415 89.7036 49.441V51.4333L86.7395 53.1429V49.7205L88.4653 48.7227C88.4653 48.674 88.4393 48.5537 88.3515 48.4042C88.2638 48.2547 88.176 48.1702 88.1305 48.1474L86.7395 48.9502V47.2699C86.6972 47.2439 86.5802 47.2082 86.4047 47.2082C86.2292 47.2082 86.1122 47.2439 86.0699 47.2699V48.9502ZM86.4047 44.6698C85.8099 44.6698 85.2769 44.7998 84.8219 45.0598C84.5326 45.2223 84.2856 45.4336 84.0873 45.6773C83.8501 45.7358 83.6193 45.8268 83.4048 45.9536C83.0343 46.1681 82.7028 46.4834 82.4395 46.8571C81.978 46.8961 81.562 47.0229 81.1915 47.2309C80.964 47.3609 80.7625 47.5169 80.5902 47.6957C79.7744 47.8257 79.0496 48.3587 78.5654 49.1972C78.3606 49.5515 78.2176 49.935 78.1526 50.3055C78.0681 50.793 78.1169 51.2708 78.2794 51.6966C78.2111 51.9371 78.1754 52.1906 78.1754 52.4506C78.1786 52.8731 78.2794 53.2989 78.4744 53.7182C78.2794 54.1374 78.1786 54.5632 78.1754 54.9857C78.1754 55.249 78.2079 55.5025 78.2794 55.7397C78.1169 56.1688 78.0714 56.6465 78.1559 57.134C78.2209 57.5013 78.3606 57.8848 78.5686 58.2423C78.7766 58.6031 79.0399 58.9184 79.3292 59.1589C79.7029 59.4709 80.1352 59.6724 80.5935 59.7439C80.7657 59.9227 80.9672 60.0787 81.1947 60.2087C81.562 60.4167 81.9813 60.5434 82.4428 60.5824C82.615 60.8229 82.81 61.0375 83.0181 61.213C83.3398 61.4827 83.7038 61.668 84.0873 61.7622C84.2856 62.006 84.5326 62.214 84.8219 62.3765C85.2769 62.6333 85.8099 62.7665 86.4014 62.7665C86.993 62.7665 87.526 62.6365 87.981 62.3765C88.2703 62.214 88.5173 62.0027 88.7155 61.759C88.9528 61.7005 89.1803 61.6095 89.3948 61.4827C89.7653 61.2682 90.0968 60.9497 90.3601 60.5792C90.8216 60.5402 91.2409 60.4134 91.6081 60.2054C91.8357 60.0754 92.0372 59.9194 92.2094 59.7407C92.5149 59.6919 92.8107 59.5846 93.0837 59.4254C94.01 58.8924 94.6828 57.7256 94.6828 56.6563C94.6828 56.3313 94.6243 56.0225 94.517 55.7365C94.5853 55.4992 94.621 55.2457 94.6178 54.9857C94.6145 54.5632 94.5138 54.1374 94.3188 53.7182C94.5138 53.2989 94.6145 52.8731 94.6178 52.4506C94.6178 52.1906 94.5853 51.9371 94.517 51.6998C94.6243 51.4138 94.6828 51.1051 94.6828 50.78C94.6828 49.7108 94.01 48.544 93.0837 48.0077C92.8107 47.8484 92.5149 47.7444 92.2062 47.6924C92.0339 47.5137 91.8324 47.3544 91.6049 47.2277C91.2376 47.0196 90.8184 46.8929 90.3569 46.8539C90.0936 46.4834 89.7621 46.1649 89.3883 45.9504C89.1738 45.8268 88.9463 45.7358 88.709 45.6773C88.5108 45.4336 88.2638 45.2256 87.9745 45.0598C87.5195 44.8031 86.9865 44.6698 86.3917 44.6698H86.4047Z" fill="#262626"/>
<path id="Vector_29" d="M81.0517 57.394L82.2608 56.6953V58.0181C82.2608 58.3008 83.291 58.3008 83.291 58.0181V56.1005L85.8911 54.5989V57.602L84.2303 58.5608C83.9833 58.7038 84.5001 59.5944 84.7438 59.4514L85.8879 58.7916V60.1892C85.8879 60.4719 86.9182 60.4719 86.9182 60.1892V58.7916L88.0622 59.4514C88.3092 59.5944 88.8228 58.7006 88.5758 58.5608L86.9149 57.602V54.5989L89.515 56.1005V58.0181C89.515 58.3008 90.5453 58.3008 90.5453 58.0181V56.6953L91.7544 57.394C92.0014 57.537 92.5149 56.6433 92.2679 56.5035L91.0589 55.8047L92.2029 55.1449C92.4499 55.0019 91.9331 54.1114 91.6894 54.2544L90.0286 55.2132L87.4285 53.7116L90.0286 52.2101L91.6894 53.1689C91.9364 53.3119 92.4499 52.4181 92.2029 52.2783L91.0589 51.6186L92.2679 50.9198C92.5149 50.7768 91.9981 49.8862 91.7544 50.0292L90.5453 50.728V49.4052C90.5453 49.1225 89.515 49.1225 89.515 49.4052V51.3228L86.9149 52.8244V49.8212L88.5758 48.8624C88.8228 48.7194 88.306 47.8289 88.0622 47.9719L86.9182 48.6317V47.2341C86.9182 46.9514 85.8879 46.9514 85.8879 47.2341V48.6317L84.7438 47.9719C84.4968 47.8289 83.9833 48.7227 84.2303 48.8624L85.8911 49.8212V52.8244L83.291 51.3228V49.4052C83.291 49.1225 82.2608 49.1225 82.2608 49.4052V50.728L81.0517 50.0292C80.8047 49.8862 80.2912 50.78 80.5382 50.9198L81.7472 51.6186L80.6032 52.2783C80.3562 52.4213 80.8729 53.3119 81.1167 53.1689L82.7775 52.2101L85.3776 53.7116L82.7775 55.2132L81.1167 54.2544C80.8697 54.1114 80.3562 55.0052 80.6032 55.1449L81.7472 55.8047L80.5382 56.5035C80.2912 56.6465 80.8079 57.537 81.0517 57.394Z" fill="#1CC3CD"/>
<path id="Vector_30" d="M35.8164 40.5291C35.5207 40.5291 35.3387 40.4251 35.3387 40.2594V39.5183L34.7406 39.8628C34.6886 39.8921 34.5846 39.9246 34.4481 39.8108C34.3831 39.7588 34.3214 39.6776 34.2661 39.5866C34.1199 39.3331 34.1166 39.1218 34.2629 39.0373L35.3387 38.4165V36.6452L33.8046 37.5325V38.7741C33.8046 38.9398 33.6226 39.0438 33.3268 39.0438C33.0311 39.0438 32.8491 38.9398 32.8491 38.7741V38.0818L32.2055 38.4523C32.1535 38.4815 32.0495 38.514 31.913 38.4003C31.848 38.3483 31.7863 38.267 31.731 38.176C31.679 38.085 31.64 37.9875 31.627 37.9063C31.5978 37.7308 31.6758 37.656 31.7278 37.6268L32.3713 37.2562L31.7733 36.9117C31.6303 36.8272 31.6303 36.6192 31.7765 36.3625C31.9228 36.1089 32.1048 36.0017 32.251 36.0829L33.3268 36.7037L34.8609 35.8164L33.3268 34.9291L32.251 35.5499C32.108 35.6344 31.926 35.5272 31.7765 35.2704C31.6303 35.0169 31.627 34.8056 31.7733 34.7211L32.3713 34.3766L31.7278 34.0061C31.679 33.9769 31.5978 33.9021 31.627 33.7266C31.64 33.6453 31.679 33.5511 31.731 33.4568C31.8773 33.2033 32.0593 33.0961 32.2055 33.1773L32.8491 33.5478V32.8556C32.8491 32.6898 33.0311 32.5858 33.3268 32.5858C33.6226 32.5858 33.8046 32.6898 33.8046 32.8556V34.0971L35.3387 34.9844V33.2131L34.2629 32.5923C34.2239 32.5696 34.1556 32.511 34.1556 32.3843C34.1556 32.1828 34.3344 31.8773 34.5066 31.7765C34.6171 31.7148 34.6984 31.744 34.7374 31.7668L35.3354 32.1113V31.3703C35.3354 31.2045 35.5174 31.1005 35.8132 31.1005C36.1089 31.1005 36.291 31.2045 36.291 31.3703V32.1113L36.889 31.7668C36.928 31.744 37.0125 31.7148 37.123 31.7765C37.2985 31.8773 37.474 32.1828 37.474 32.3843C37.474 32.511 37.4057 32.5696 37.3667 32.5923L36.291 33.2131V34.9844L37.825 34.0971V32.8556C37.825 32.6898 38.007 32.5858 38.3028 32.5858C38.5985 32.5858 38.7806 32.6898 38.7806 32.8556V33.5478L39.4241 33.1773C39.4631 33.1546 39.5476 33.1253 39.6581 33.1871C39.8336 33.2878 40.0091 33.5966 40.0091 33.7949C40.0091 33.9216 39.9408 33.9769 39.9018 34.0029L39.2583 34.3734L39.8563 34.7179C39.9993 34.8024 39.9993 35.0104 39.8531 35.2672C39.7068 35.5239 39.5248 35.6279 39.3786 35.5467L38.3028 34.9259L36.7687 35.8132L38.3028 36.7005L39.3786 36.0797C39.5248 35.9952 39.7036 36.1024 39.8531 36.3592C39.9993 36.6127 40.0026 36.824 39.8563 36.9085L39.2583 37.253L39.9018 37.6235C39.9408 37.6463 40.0091 37.7048 40.0091 37.8315C40.0091 38.033 39.8303 38.3418 39.6581 38.4393C39.5476 38.501 39.4663 38.4718 39.4273 38.449L38.7838 38.0785V38.7708C38.7838 38.9366 38.6018 39.0406 38.306 39.0406C38.0103 39.0406 37.8283 38.9366 37.8283 38.7708V37.5293L36.2942 36.642V38.4133L37.37 39.0341C37.409 39.0568 37.4772 39.1153 37.4772 39.2421C37.4772 39.4436 37.2985 39.7491 37.1262 39.8498C37.0157 39.9116 36.9345 39.8823 36.8922 39.8596L36.2942 39.5151V40.2561C36.2942 40.4219 36.1122 40.5259 35.8164 40.5259V40.5291ZM35.5889 40.2399C35.6182 40.2561 35.6994 40.2821 35.8164 40.2821C35.9334 40.2821 36.0147 40.2561 36.0439 40.2399V39.0861L36.9995 39.6386C37.0287 39.6223 37.0905 39.5638 37.149 39.4598C37.2075 39.3558 37.227 39.2746 37.227 39.2421L36.0439 38.5595V36.2129L38.0753 37.3862V38.7513C38.1045 38.7676 38.1858 38.7936 38.3028 38.7936C38.4198 38.7936 38.5043 38.7676 38.5303 38.7513V37.6495L39.5281 38.2248C39.5573 38.2085 39.6191 38.15 39.6776 38.046C39.7361 37.942 39.7556 37.8608 39.7556 37.8283L38.7578 37.253L39.7133 36.7005C39.7133 36.668 39.6938 36.5835 39.6353 36.4827C39.5768 36.3787 39.5151 36.3235 39.4858 36.3072L38.3028 36.9897L36.2714 35.8164L38.3028 34.6431L39.4858 35.3257C39.5151 35.3094 39.5768 35.2509 39.6353 35.1502C39.6938 35.0462 39.7133 34.9649 39.7133 34.9324L38.7578 34.3799L39.7556 33.8046C39.7556 33.7721 39.7361 33.6876 39.6776 33.5868C39.6191 33.4828 39.5573 33.4243 39.5281 33.4081L38.5303 33.9834V32.8816C38.501 32.8653 38.4198 32.8393 38.3028 32.8393C38.1858 32.8393 38.1045 32.8653 38.0753 32.8816V34.2466L36.0439 35.4199V33.0733L37.227 32.3908C37.227 32.3583 37.2075 32.2738 37.149 32.173C37.0905 32.0723 37.0287 32.0138 36.9995 31.9975L36.0439 32.5501V31.3963C36.0147 31.38 35.9334 31.354 35.8164 31.354C35.6994 31.354 35.6149 31.38 35.5889 31.3963V32.5501L34.6334 31.9975C34.6041 32.0138 34.5424 32.0723 34.4839 32.173C34.4254 32.277 34.4059 32.3583 34.4059 32.3908L35.5889 33.0733V35.4199L33.5576 34.2466V32.8816C33.5283 32.8653 33.4471 32.8393 33.3301 32.8393C33.2131 32.8393 33.1318 32.8653 33.1026 32.8816V33.9834L32.1048 33.4081C32.0755 33.4243 32.0138 33.4828 31.9553 33.5836C31.8968 33.6876 31.8773 33.7689 31.8773 33.8014L32.8751 34.3766L31.9195 34.9291C31.9195 34.9616 31.939 35.0462 31.9975 35.1469C32.056 35.2509 32.1178 35.3062 32.147 35.3224L33.3301 34.6399L35.3614 35.8132L33.3301 36.9865L32.147 36.304C32.1178 36.3202 32.056 36.3787 31.9975 36.4795C31.939 36.5835 31.9195 36.6647 31.9195 36.6972L32.8751 37.2497L31.8773 37.825C31.8773 37.8575 31.8968 37.942 31.9553 38.0428C32.0138 38.1468 32.0755 38.2053 32.1048 38.2215L33.1026 37.6463V38.748C33.1318 38.7643 33.2131 38.7903 33.3301 38.7903C33.4471 38.7903 33.5316 38.7643 33.5576 38.748V37.383L35.5889 36.2097V38.5563L34.4059 39.2388C34.4059 39.2713 34.4254 39.3558 34.4839 39.4566C34.5424 39.5606 34.6041 39.6158 34.6334 39.6321L35.5889 39.0796V40.2334V40.2399Z" fill="#1CC3CD"/>
<path id="Vector_31" d="M35.8164 31.7018C36.0732 31.7018 36.2325 31.7928 36.2325 31.939V32.5858L36.7557 32.2836C36.7752 32.2738 36.8045 32.2608 36.8435 32.2608C36.876 32.2608 36.915 32.2706 36.9572 32.2933C37.11 32.3811 37.2627 32.6508 37.2627 32.8263C37.2627 32.9368 37.2042 32.9856 37.1685 33.0083L36.2292 33.5511V35.0982L37.5683 34.3246V33.2391C37.5683 33.0928 37.7275 33.0018 37.9843 33.0018C38.241 33.0018 38.4003 33.0928 38.4003 33.2391V33.8436L38.9626 33.5186C38.9821 33.5089 39.0113 33.4959 39.0503 33.4959C39.0828 33.4959 39.1218 33.5056 39.1641 33.5284C39.3168 33.6161 39.4696 33.8859 39.4696 34.0614C39.4696 34.1719 39.4111 34.2206 39.3753 34.2401L38.8131 34.5652L39.3363 34.8674C39.4631 34.9389 39.4598 35.1242 39.3331 35.3452C39.2323 35.5174 39.1153 35.6117 39.0081 35.6117C38.9756 35.6117 38.9463 35.6052 38.9171 35.5857L37.9778 35.0429L36.6387 35.8164L37.9778 36.59L38.9171 36.0472C38.9463 36.031 38.9756 36.0245 39.0081 36.0245C39.1153 36.0245 39.2323 36.1187 39.3331 36.291C39.4598 36.512 39.4631 36.6972 39.3363 36.7687L38.8131 37.071L39.3753 37.396C39.4111 37.4155 39.4696 37.4675 39.4696 37.578C39.4696 37.7535 39.3136 38.0233 39.1641 38.111C39.1218 38.137 39.0828 38.1435 39.0503 38.1435C39.0113 38.1435 38.9788 38.1305 38.9626 38.1208L38.4003 37.7958V38.4003C38.4003 38.5466 38.241 38.6376 37.9843 38.6376C37.7275 38.6376 37.5683 38.5466 37.5683 38.4003V37.3148L36.2292 36.5412V38.0883L37.1685 38.6311C37.2042 38.6506 37.2627 38.7026 37.2627 38.8098C37.2627 38.9853 37.1067 39.2551 36.9572 39.3428C36.915 39.3688 36.876 39.3753 36.8435 39.3753C36.8045 39.3753 36.772 39.3623 36.7557 39.3526L36.2325 39.0503V39.6971C36.2325 39.8434 36.0732 39.9344 35.8164 39.9344C35.5597 39.9344 35.4004 39.8434 35.4004 39.6971V39.0503L34.8772 39.3526C34.8577 39.3656 34.8251 39.3753 34.7861 39.3753C34.7406 39.3753 34.6854 39.3591 34.6204 39.3038C34.5651 39.2583 34.5099 39.1868 34.4611 39.1056C34.3311 38.8846 34.3311 38.6993 34.4579 38.6278L35.3972 38.085V36.538L34.0581 37.3115V38.3971C34.0581 38.5433 33.8989 38.6343 33.6421 38.6343C33.3853 38.6343 33.2261 38.5433 33.2261 38.3971V37.7925L32.6638 38.1175C32.6443 38.1305 32.6118 38.1403 32.5728 38.1403C32.5273 38.1403 32.4721 38.124 32.4071 38.0688C32.3518 38.0233 32.2965 37.9518 32.2478 37.8738C32.2023 37.7925 32.1698 37.708 32.1568 37.6398C32.1308 37.487 32.199 37.422 32.2445 37.396L32.8068 37.071L32.2835 36.7687C32.1568 36.6972 32.16 36.512 32.2868 36.291C32.3876 36.1187 32.5046 36.0245 32.6118 36.0245C32.6443 36.0245 32.6736 36.031 32.6996 36.0472L33.6389 36.59L34.9779 35.8164L33.6389 35.0429L32.6996 35.5857C32.6703 35.6019 32.6411 35.6117 32.6118 35.6117C32.5046 35.6117 32.3876 35.5174 32.2868 35.3452C32.1568 35.1242 32.1568 34.9389 32.2835 34.8674L32.8068 34.5652L32.2445 34.2401C32.199 34.2141 32.1308 34.1491 32.1568 33.9964C32.1698 33.9249 32.2023 33.8404 32.2478 33.7624C32.3486 33.5901 32.4656 33.4959 32.5728 33.4959C32.6053 33.4959 32.6346 33.5024 32.6606 33.5186L33.2228 33.8436V33.2391C33.2228 33.0928 33.3821 33.0018 33.6389 33.0018C33.8956 33.0018 34.0549 33.0928 34.0549 33.2391V34.3246L35.3939 35.0982V33.5511L34.4546 33.0083C34.4189 32.9888 34.3604 32.9368 34.3604 32.8263C34.3604 32.6508 34.5164 32.3811 34.6659 32.2933C34.7081 32.2673 34.7471 32.2608 34.7796 32.2608C34.8187 32.2608 34.8512 32.2738 34.8674 32.2836L35.3907 32.5858V31.939C35.3907 31.7928 35.5499 31.7018 35.8067 31.7018M35.6084 32.9628L34.7764 32.4818C34.7504 32.4948 34.6951 32.5468 34.6464 32.6378C34.5944 32.7288 34.5781 32.8003 34.5781 32.8296L35.6117 33.4276V35.4752L33.8371 34.4514V33.2586C33.8111 33.2423 33.7396 33.2228 33.6389 33.2228C33.5381 33.2228 33.4633 33.2456 33.4406 33.2586V34.2206L32.5696 33.7169C32.5436 33.7299 32.4883 33.7819 32.4396 33.8729C32.3876 33.9639 32.3713 34.0354 32.3713 34.0646L33.2423 34.5684L32.4103 35.0494C32.4103 35.0787 32.4266 35.1502 32.4786 35.2412C32.5306 35.3322 32.5858 35.3809 32.6086 35.3972L33.6421 34.7992L35.4167 35.823L33.6421 36.8467L32.6086 36.2487C32.5826 36.2617 32.5273 36.3137 32.4786 36.4047C32.4266 36.4957 32.4103 36.5672 32.4103 36.5965L33.2423 37.0775L32.3713 37.5813C32.3713 37.6105 32.3876 37.682 32.4396 37.773C32.4916 37.864 32.5468 37.9128 32.5696 37.929L33.4406 37.4253V38.3873C33.4666 38.4036 33.5381 38.4231 33.6389 38.4231C33.7396 38.4231 33.8144 38.4003 33.8371 38.3873V37.1945L35.6117 36.1707V38.2183L34.5781 38.8163C34.5781 38.8456 34.5944 38.9171 34.6464 39.0081C34.6984 39.0991 34.7536 39.1478 34.7764 39.1641L35.6084 38.6831V39.6906C35.6344 39.7069 35.7059 39.7264 35.8067 39.7264C35.9074 39.7264 35.9822 39.7036 36.0049 39.6906V38.6831L36.837 39.1641C36.863 39.1511 36.9182 39.0991 36.967 39.0081C37.019 38.9171 37.0352 38.8456 37.0352 38.8163L36.0017 38.2183V36.1707L37.7763 37.1945V38.3873C37.8023 38.4036 37.8738 38.4231 37.9745 38.4231C38.0753 38.4231 38.15 38.4003 38.1728 38.3873V37.4253L39.0438 37.929C39.0698 37.916 39.1251 37.864 39.1738 37.773C39.2258 37.682 39.2421 37.6105 39.2421 37.5813L38.371 37.0775L39.2031 36.5965C39.2031 36.5672 39.1868 36.4957 39.1348 36.4047C39.0828 36.3137 39.0276 36.265 39.0048 36.2487L37.9713 36.8467L36.1967 35.823L37.9713 34.7992L39.0048 35.3972C39.0308 35.3842 39.0861 35.3322 39.1348 35.2412C39.1868 35.1502 39.2031 35.0787 39.2031 35.0494L38.371 34.5684L39.2421 34.0646C39.2421 34.0354 39.2258 33.9639 39.1738 33.8729C39.1218 33.7819 39.0666 33.7331 39.0438 33.7169L38.1728 34.2206V33.2586C38.1468 33.2423 38.0753 33.2228 37.9745 33.2228C37.8738 33.2228 37.799 33.2456 37.7763 33.2586V34.4514L36.0017 35.4752V33.4276L37.0352 32.8296C37.0352 32.8003 37.019 32.7288 36.967 32.6378C36.915 32.5468 36.8597 32.4981 36.837 32.4818L36.0049 32.9628V31.9553C35.9789 31.939 35.9074 31.9195 35.8067 31.9195C35.7059 31.9195 35.6312 31.9423 35.6084 31.9553V32.9628ZM35.8067 30.4017C35.4524 30.4017 35.1339 30.4797 34.8609 30.6357C34.6886 30.7332 34.5391 30.86 34.4221 31.0063C34.2791 31.042 34.1426 31.0973 34.0126 31.172C33.7916 31.2988 33.5934 31.4905 33.4341 31.7115C33.1578 31.7343 32.9076 31.8123 32.6866 31.9358C32.5501 32.0138 32.4298 32.1081 32.329 32.2121C31.8415 32.2901 31.406 32.6086 31.1168 33.1123C30.9932 33.3236 30.9087 33.5544 30.8697 33.7754C30.821 34.0679 30.847 34.3539 30.9445 34.6074C30.9022 34.7504 30.8827 34.9032 30.8827 35.0592C30.8827 35.3127 30.9445 35.5662 31.0615 35.8197C30.9445 36.07 30.8827 36.3267 30.8827 36.577C30.8827 36.733 30.9022 36.8857 30.9445 37.0287C30.847 37.2855 30.8177 37.5715 30.8697 37.864C30.9087 38.085 30.9932 38.3158 31.1168 38.5271C31.2403 38.7416 31.3995 38.9301 31.5718 39.0763C31.796 39.2648 32.056 39.3818 32.329 39.4273C32.4331 39.5346 32.5533 39.6289 32.6898 39.7069C32.9108 39.8336 33.1611 39.9084 33.4373 39.9311C33.5381 40.0774 33.6584 40.2041 33.7819 40.3081C33.9736 40.4706 34.1914 40.5811 34.4221 40.6364C34.5424 40.7826 34.6886 40.9062 34.8609 41.0037C35.1339 41.1564 35.4524 41.2377 35.8067 41.2377C36.161 41.2377 36.4795 41.1597 36.7525 41.0037C36.9247 40.9062 37.0742 40.7794 37.1912 40.6331C37.3343 40.5974 37.4708 40.5421 37.5975 40.4674C37.8218 40.3374 38.02 40.1489 38.176 39.9279C38.4523 39.9051 38.7026 39.8271 38.9236 39.7036C39.0601 39.6256 39.1803 39.5314 39.2843 39.4241C39.4663 39.3948 39.6451 39.3298 39.8076 39.2356C40.3634 38.9171 40.7664 38.2183 40.7664 37.578C40.7664 37.383 40.7306 37.1978 40.6689 37.0255C40.7111 36.8825 40.7306 36.733 40.7306 36.577C40.7306 36.3235 40.6689 36.07 40.5519 35.8164C40.6689 35.5662 40.7306 35.3094 40.7306 35.0559C40.7306 34.8999 40.7111 34.7504 40.6689 34.6074C40.7339 34.4351 40.7664 34.2499 40.7664 34.0581C40.7664 33.4179 40.3634 32.7191 39.8076 32.3973C39.6451 32.3031 39.4663 32.2381 39.2811 32.2088C39.1771 32.1016 39.0568 32.0073 38.9203 31.9293C38.6993 31.8058 38.449 31.731 38.1728 31.705C38.0135 31.484 37.8153 31.2923 37.5943 31.1623C37.4643 31.0875 37.3277 31.0323 37.188 30.9998C37.0677 30.8535 36.9215 30.73 36.7492 30.6292C36.4762 30.4732 36.1577 30.3952 35.8034 30.3952L35.8067 30.4017Z" fill="#262626"/>
<path id="Vector_32" d="M35.8522 40.1164C38.2611 40.1164 40.2139 38.1636 40.2139 35.7547C40.2139 33.3458 38.2611 31.393 35.8522 31.393C33.4433 31.393 31.4905 33.3458 31.4905 35.7547C31.4905 38.1636 33.4433 40.1164 35.8522 40.1164Z" fill="#262626"/>
<path id="Vector_33" d="M32.1438 38.345L32.9726 37.8673V38.7741C32.9726 38.9691 33.6778 38.9691 33.6778 38.7741V37.461L35.4622 36.4307V38.4913L34.3246 39.1478C34.1556 39.2453 34.5099 39.8563 34.6789 39.7588L35.4654 39.3038V40.2626C35.4654 40.4576 36.1707 40.4576 36.1707 40.2626V39.3038L36.9572 39.7588C37.1262 39.8563 37.4805 39.2453 37.3115 39.1478L36.1739 38.4913V36.4307L37.9583 37.461V38.7741C37.9583 38.9691 38.6635 38.9691 38.6635 38.7741V37.8673L39.4923 38.345C39.6613 38.4425 40.0156 37.8315 39.8466 37.734L39.0178 37.2562L39.8043 36.8012C39.9733 36.7037 39.6191 36.0927 39.4501 36.1902L38.3125 36.8467L36.5282 35.8164L38.3125 34.7861L39.4501 35.4427C39.6191 35.5402 39.9733 34.9291 39.8043 34.8316L39.0178 34.3766L39.8466 33.8989C40.0156 33.8014 39.6613 33.1903 39.4923 33.2878L38.6635 33.7656V32.8588C38.6635 32.6638 37.9583 32.6638 37.9583 32.8588V34.1719L36.1739 35.2022V33.1416L37.3115 32.485C37.4805 32.3875 37.1262 31.7765 36.9572 31.874L36.1707 32.329V31.3703C36.1707 31.1752 35.4654 31.1752 35.4654 31.3703V32.329L34.6789 31.874C34.5099 31.7765 34.1556 32.3875 34.3246 32.485L35.4622 33.1416V35.2022L33.6778 34.1719V32.8588C33.6778 32.6638 32.9726 32.6638 32.9726 32.8588V33.7656L32.1438 33.2878C31.9748 33.1903 31.6205 33.8014 31.7895 33.8989L32.6183 34.3766L31.8318 34.8316C31.6628 34.9291 32.017 35.5402 32.186 35.4427L33.3236 34.7861L35.1079 35.8164L33.3236 36.8467L32.186 36.1902C32.017 36.0927 31.6628 36.7037 31.8318 36.8012L32.6183 37.2562L31.7895 37.734C31.6205 37.8315 31.9748 38.4425 32.1438 38.345Z" fill="#1CC3CD"/>
</g>
</svg>
