<svg width="151" height="71" viewBox="0 0 151 71" fill="none" xmlns="http://www.w3.org/2000/svg">
<g id="Head_logo (150x70)">
<g id="Blackout">
<path id="Vector" d="M147.546 41.198L146.074 39.1109C146.197 39.0194 146.319 38.9207 146.442 38.8146C147.419 37.9679 148.071 36.8271 148.38 35.4217V35.4111V35.4006L148.997 32.46C149.316 30.952 149.015 29.5617 148.123 28.4314C147.486 27.6232 146.304 26.6588 144.293 26.6588H111.521L110.869 27.8192L109.232 30.7371L109.114 30.1618L108.746 28.3523H102.87L102.448 27.3517L101.051 24.2242L98.6012 18.7382L103.565 13.0305L106.802 9.31106H96.0473L95.36 10.2008L94.8834 10.8205L94.859 10.758L94.2977 9.31106H82.609L82.6144 9.31784C82.525 9.31332 82.4334 9.31106 82.3402 9.31106H63.1451L62.4822 9.94441L61.597 10.7926C61.4595 10.6514 61.3206 10.5117 61.18 10.3734C56.2465 5.49786 49.9778 2.15122 43.1442 0.744637C36.3105 -0.661944 29.2095 -0.0672007 22.7136 2.4558C16.2176 4.9788 10.6096 9.32018 6.57843 14.9466C2.54729 20.573 0.268603 27.2394 0.0223151 34.1268C-0.223973 41.0142 1.57286 47.8226 5.19208 53.7157C8.8113 59.6087 14.0953 64.3297 20.3948 67.2987C26.6944 70.2677 33.7352 71.3553 40.6523 70.428C47.5694 69.5007 54.0615 66.5989 59.3311 62.0789H109.583C111.09 62.0789 112.415 61.524 113.416 60.4752C114.278 59.5648 114.87 58.4376 115.126 57.2172L115.129 57.2014V57.1855L115.562 55.0887C115.737 54.3375 115.737 53.5568 115.562 52.8056H116.052L116.427 51.0081L116.678 49.8017C117.076 47.8791 116.419 46.5445 115.797 45.7619C115.479 45.3597 115.094 45.0131 114.66 44.7364H137.472L137.849 42.9427L138.135 41.5855L139.433 43.6658L140.107 44.7364H150.044L147.546 41.198ZM56.0532 27.3465L58.3573 30.2908L60.275 32.7405L59.9107 34.446H59.9169L58.3131 42.0236L57.893 44.0043H42.7501L45.5904 47.6333L47.3721 49.9103L46.0356 56.2649C45.6118 58.1974 46.2792 59.5417 46.9146 60.3304C47.5501 61.1191 48.7384 62.0759 50.7378 62.0759H52.6066C47.5778 65.1583 41.7745 66.7875 35.8553 66.7785C18.2899 66.7785 4.04364 52.7166 4.04364 35.3712C4.04364 18.0257 18.2861 3.9683 35.8553 3.9683C42.1826 3.95833 48.3678 5.82004 53.6132 9.31332H45.1008L47.9403 12.9423L49.6915 15.1793L47.6791 24.6728L47.104 27.3872H56.1204L56.0532 27.3465Z" fill="white"/>
</g>
<g id="Text">
<path id="Vector_2" d="M95.9327 18.3506L101.837 11.5655H97.1791L94.2205 15.4101L92.7305 11.5655H91.7002H88.2635H87.2539L89.7184 14.7141L91.3458 18.2375L85.3896 25.135H90.0101L92.9825 21.2716L94.5343 25.135H98.9631L95.9327 18.3506Z" fill="#262626"/>
<path id="Vector_3" d="M67.6191 11.5655H64.0678L59.2053 16.2078L55.9549 11.5655H55.9129H52.7855H49.7437L52.1379 14.6244L49.9117 25.135H53.6539L54.8873 19.2645L56.5438 21.8559H59.4833L62.2517 19.2456L61.0038 25.135H64.7453L67.6191 11.5655Z" fill="#DF2929"/>
<path id="Vector_4" d="M84.8141 14.6561C84.9933 13.789 84.8459 13.0571 84.3719 12.4605C83.8979 11.8638 83.2218 11.5655 82.3435 11.5655H69.3711L71.9265 14.8303L69.7499 25.1358H73.4921L74.6422 19.7259H80.0027L78.8572 25.1358H82.5994L84.8141 14.6561ZM75.2227 16.9746L75.5625 15.3158C75.6335 15.0022 75.829 14.8446 76.1468 14.8446H80.5564C80.8752 14.8446 80.9986 15.0017 80.9268 15.3158L80.5877 16.9746H75.2227Z" fill="#262626"/>
<path id="Vector_5" d="M75.2797 32.0054C75.3704 31.6148 75.373 31.2094 75.2874 30.8178C75.1781 30.2755 74.8791 29.7884 74.4427 29.4418C74.0028 29.0899 73.4583 28.914 72.8091 28.914H60.1636L62.7243 32.1863V32.1938H71.255C71.2997 32.1904 71.3439 32.2042 71.3785 32.2323C71.4131 32.2605 71.4354 32.3007 71.4406 32.3446C71.4482 32.3756 71.4482 32.4079 71.4406 32.4389L70.9663 34.6745C70.9256 34.8378 70.8288 34.9195 70.6761 34.9195L62.1462 34.9075L60.5424 42.4843H64.2846L65.214 38.0478H71.2473C71.6615 38.0559 72.073 37.9797 72.4561 37.8241C72.8393 37.6684 73.1858 37.4366 73.4743 37.143C74.0776 36.5448 74.4888 35.7842 74.6565 34.9565L75.2797 32.0054Z" fill="#DF2929"/>
<path id="Vector_6" d="M91.6569 32.0054C91.8366 31.1383 91.6892 30.4064 91.2147 29.8097C90.7402 29.2131 90.064 28.9145 89.1862 28.914H76.1313L78.6936 32.1886L77.1769 39.3937C76.9854 40.2608 77.1298 40.9926 77.6099 41.5893C78.09 42.186 78.7692 42.4843 79.6475 42.4843H86.692C87.5702 42.4843 88.31 42.186 88.9113 41.5893C89.5157 40.9872 89.9292 40.2242 90.1012 39.3937L91.6569 32.0054ZM86.149 39.2052H81.2047C81.0387 39.2052 80.97 39.1235 80.9985 38.9601L82.3777 32.4389C82.3887 32.3672 82.4266 32.3021 82.4839 32.2567C82.5412 32.2113 82.6137 32.1889 82.6871 32.1938H87.6321C87.7971 32.1938 87.8594 32.2755 87.8192 32.4389L86.4392 38.9601C86.4369 38.9952 86.4275 39.0295 86.4116 39.0609C86.3956 39.0923 86.3735 39.1203 86.3464 39.1431C86.3194 39.166 86.288 39.1832 86.2541 39.1939C86.2201 39.2045 86.1844 39.2084 86.149 39.2052Z" fill="#262626"/>
<path id="Vector_7" d="M112.865 28.914L108.223 37.1883L106.879 30.6105H103.92L99.7683 37.3768L98.6808 28.914H97.1587H94.6912H92.7124L95.1868 32.0755L96.8189 42.4843H100.408L104.32 35.7557L105.372 42.4843H108.96L116.855 28.914H112.865Z" fill="#262626"/>
<path id="Vector_8" d="M124.808 32.1939H127.219H129.931L130.513 28.914H124.544H121.763H118.375L120.942 32.1939H121.068H123.844H124.808Z" fill="#262626"/>
<path id="Vector_9" d="M128.244 39.2052H120.531L120.982 37.0752H127.836L128.418 34.3231H123.971H121.564H117.823L116.094 42.4843H127.549L128.244 39.2052Z" fill="#262626"/>
<path id="Vector_10" d="M134.021 32.1939H142.742C142.907 32.1939 142.971 32.2753 142.929 32.4389L142.461 34.6624C142.459 34.6975 142.45 34.7317 142.434 34.7631C142.418 34.7945 142.396 34.8225 142.369 34.8453C142.342 34.8682 142.311 34.8855 142.277 34.8961C142.243 34.9068 142.207 34.9107 142.172 34.9075H130.922L132.937 37.4823L131.878 42.4843H135.62L136.556 38.0358H138.605L141.379 42.4843H145.674L142.537 38.0358C142.537 38.0358 143.708 38.1866 144.937 37.1219C145.597 36.5497 145.965 35.7866 146.151 34.9444L146.768 32.0039C146.95 31.1493 146.803 30.4205 146.327 29.8173C145.852 29.2141 145.175 28.9125 144.297 28.9125H132.201L134.021 32.1939Z" fill="#262626"/>
<path id="Vector_11" d="M61.5528 54.9831H57.8107L57.509 56.3969C57.5078 56.4184 57.5023 56.4395 57.4927 56.4589C57.4831 56.4783 57.4696 56.4955 57.453 56.5096C57.4365 56.5237 57.4172 56.5344 57.3964 56.5409C57.3755 56.5474 57.3536 56.5497 57.3318 56.5477H52.2913C52.1256 56.5477 52.0568 56.4655 52.0851 56.3026L53.4659 49.7806C53.4767 49.7088 53.5145 49.6437 53.5719 49.5982C53.6292 49.5528 53.7019 49.5304 53.7752 49.5356H58.8157C58.9173 49.5356 58.9539 49.5853 58.9249 49.6864L58.6423 51.0994H62.3845L63.0192 48.0653C63.1251 47.5627 63.038 47.1354 62.758 46.7835C62.478 46.4317 62.0831 46.2557 61.5735 46.2557H47.3921L49.8153 49.3531L48.2642 56.7354C48.0718 57.602 48.2159 58.3339 48.6965 58.931C49.1771 59.5282 49.8566 59.8265 50.7349 59.826H58.695C59.2145 59.8225 59.7155 59.6352 60.1071 59.2982C60.5199 58.9773 60.8058 58.5238 60.9151 58.0164L61.5528 54.9831Z" fill="#DF2929"/>
<path id="Vector_12" d="M80.5694 49.3478C80.7486 48.4807 80.6012 47.7486 80.1272 47.1515C79.6532 46.5543 78.977 46.256 78.0988 46.2565H65.1294L67.6848 49.5212L65.5082 59.8267H69.2504L70.396 54.4176H75.7641L74.6139 59.8267H78.3561L80.5694 49.3478ZM70.981 51.6656L71.3208 50.0068C71.3916 49.6931 71.5863 49.5363 71.905 49.5363H76.3147C76.6329 49.5363 76.7564 49.6931 76.6851 50.0068L76.346 51.6656H70.981Z" fill="#262626"/>
<path id="Vector_13" d="M84.8515 49.5363H93.4326C93.5975 49.5363 93.6599 49.618 93.6197 49.7814L93.1515 52.0049C93.1493 52.04 93.14 52.0743 93.1241 52.1058C93.1082 52.1373 93.0861 52.1653 93.059 52.1881C93.0319 52.211 93.0005 52.2282 92.9665 52.2388C92.9326 52.2495 92.8968 52.2532 92.8613 52.2499H81.6118L83.6273 54.8248L82.568 59.8268H86.3102L87.2465 55.3782H89.2955L92.0693 59.8268H96.3652L93.2279 55.3782C93.2279 55.3782 94.3987 55.529 95.6282 54.4636C96.2881 53.8921 96.6562 53.1291 96.841 52.2869L97.4581 49.3463C97.6409 48.4918 97.4942 47.763 97.0182 47.1598C96.5421 46.5566 95.8652 46.255 94.9875 46.255H82.891L84.8515 49.5363Z" fill="#262626"/>
<path id="Vector_14" d="M113.331 54.625C113.523 53.7579 113.379 53.026 112.898 52.4294C112.417 51.8327 111.737 51.5341 110.86 51.5336H105.438C105.272 51.5336 105.203 51.452 105.231 51.2886L105.55 49.7806C105.561 49.7095 105.598 49.6449 105.655 49.5996C105.711 49.5542 105.783 49.5314 105.856 49.5356H110.419C110.584 49.5356 110.646 49.6173 110.606 49.7806L110.453 50.5527H114.195L114.447 49.3463C114.626 48.4792 114.479 47.7471 114.004 47.15C113.53 46.5528 112.854 46.2545 111.976 46.255H99.3403L101.875 49.4971L101.47 51.4575C101.278 52.3246 101.422 53.0565 101.903 53.6531C102.383 54.2498 103.062 54.5483 103.94 54.5488H109.363C109.527 54.5488 109.59 54.6305 109.55 54.7939L109.23 56.3019C109.228 56.3369 109.219 56.3711 109.203 56.4025C109.187 56.4339 109.164 56.4618 109.137 56.4846C109.11 56.5074 109.079 56.5247 109.045 56.5354C109.011 56.5461 108.976 56.55 108.94 56.5469H104.378C104.212 56.5469 104.143 56.4647 104.172 56.3019L104.346 55.529H100.604L100.351 56.7354C100.16 57.6025 100.304 58.3346 100.785 58.9318C101.265 59.5289 101.944 59.8273 102.822 59.8268H109.58C110.458 59.8268 111.182 59.5284 111.752 58.9318C112.332 58.3179 112.728 57.5578 112.898 56.7354L113.331 54.625Z" fill="#262626"/>
</g>
<g id="Rpm">
<path id="Vector_15" d="M35.8552 33.1348C36.3045 33.1325 36.7443 33.262 37.1189 33.5068C37.4936 33.7516 37.7862 34.1006 37.9597 34.5098C38.1332 34.9189 38.1797 35.3697 38.0935 35.8049C38.0072 36.2402 37.792 36.6404 37.4752 36.9548C37.1583 37.2692 36.754 37.4837 36.3136 37.5711C35.8731 37.6584 35.4163 37.6147 35.0011 37.4455C34.5858 37.2763 34.2307 36.9892 33.9809 36.6206C33.7311 36.252 33.5977 35.8184 33.5977 35.3749C33.5969 35.0814 33.6547 34.7907 33.7677 34.5193C33.8807 34.2479 34.0468 34.0011 34.2564 33.7931C34.4661 33.5851 34.7152 33.4199 34.9895 33.3069C35.2638 33.194 35.558 33.1355 35.8552 33.1348ZM35.8552 31.2747C35.0328 31.2699 34.2275 31.5063 33.5413 31.9539C32.8551 32.4016 32.319 33.0402 32.0009 33.789C31.6828 34.5378 31.5971 35.363 31.7546 36.1599C31.9121 36.9568 32.3057 37.6897 32.8855 38.2655C33.4653 38.8414 34.2053 39.2343 35.0115 39.3944C35.8178 39.5546 36.6541 39.4748 37.4144 39.1652C38.1747 38.8556 38.8248 38.3301 39.2822 37.6553C39.7397 36.9805 39.9839 36.1869 39.9839 35.3749C39.9855 34.2906 39.5514 33.25 38.7768 32.4813C38.0022 31.7126 36.9504 31.2787 35.8522 31.2747" fill="white"/>
<path id="Vector_16" d="M40.8344 59.0916C40.142 59.2328 39.4376 59.3452 38.7212 59.4286C38.0064 59.5116 37.2938 59.5628 36.5874 59.584L36.692 63.0433C37.5 63.0186 38.3131 62.9591 39.1313 62.8646C39.9495 62.7701 40.7542 62.6416 41.5454 62.4793C42.3509 62.3164 43.1418 62.1201 43.9183 61.8904L42.9102 58.5729L41.9028 55.2553L40.8344 59.0916Z" fill="white"/>
<path id="Vector_17" d="M32.3176 59.3487C31.6048 59.2482 30.9034 59.1167 30.2135 58.9544C29.5236 58.792 28.8363 58.6005 28.1515 58.3798L27.0518 61.6657C27.8231 61.917 28.6077 62.136 29.4055 62.3224C30.2033 62.5089 31.0047 62.6597 31.8097 62.7748C32.6116 62.8894 33.4229 62.9696 34.2436 63.0154L34.4445 59.5606L34.6453 56.1058L32.3176 59.3487Z" fill="white"/>
<path id="Vector_18" d="M26.7764 12.8661C27.4352 12.6072 28.1093 12.3765 28.7987 12.1739C29.4784 11.9729 30.1706 11.801 30.8752 11.6582C31.5671 11.5175 32.2713 11.4051 32.9876 11.3212C33.7004 11.2377 34.4117 11.1857 35.1215 11.1651C35.8409 11.1417 36.5549 11.1515 37.2599 11.1907C37.9648 11.2299 38.6872 11.3008 39.3891 11.4011C40.0909 11.5014 40.8012 11.6333 41.4923 11.7954L42.2988 8.42585C41.5086 8.24187 40.7073 8.09108 39.8947 7.97345C39.0928 7.85935 38.2814 7.77943 37.4607 7.73369C36.6527 7.68845 35.8381 7.67839 35.0168 7.70353C34.2088 7.72916 33.3942 7.78898 32.5729 7.88298C31.7517 7.97697 30.9473 8.1054 30.1596 8.26826C29.3531 8.43113 28.5619 8.62741 27.786 8.85713C27.0004 9.08936 26.2301 9.35325 25.475 9.64882C24.7199 9.94438 23.9758 10.2741 23.2427 10.638L24.819 13.7294L26.3945 16.8208L26.7764 12.8661Z" fill="#DF2929"/>
<path id="Vector_19" d="M24.2254 56.7082C23.5961 56.3735 22.9834 56.0123 22.3871 55.6248C21.7909 55.2372 21.212 54.8253 20.6505 54.389C20.0904 53.9532 19.55 53.493 19.0291 53.0084L16.6265 55.5282C17.2206 56.0812 17.838 56.6067 18.4785 57.1048C19.119 57.603 19.7809 58.0742 20.4641 58.5186C21.1454 58.9604 21.8454 59.3728 22.5643 59.7559C23.2832 60.1389 24.0177 60.4907 24.7676 60.8114L26.153 57.6319L27.5353 54.4493L24.2254 56.7082Z" fill="white"/>
<path id="Vector_20" d="M14.2468 23.8939C14.5859 23.2721 14.9517 22.6669 15.3443 22.0783C15.7368 21.4897 16.1541 20.9184 16.596 20.3645C17.0374 19.8116 17.5035 19.278 17.9944 18.7638C18.4852 18.2496 18.9963 17.7582 19.5279 17.2897C20.0584 16.8208 20.6111 16.3749 21.1859 15.9522C21.7607 15.5294 22.3498 15.1331 22.9531 14.7631L21.1103 11.8226C20.4138 12.2468 19.7397 12.6992 19.088 13.1797C18.4363 13.6603 17.8044 14.1697 17.1925 14.7081C16.5815 15.2439 15.996 15.8054 15.4359 16.3925C14.8759 16.9796 14.3433 17.5893 13.8382 18.2217C13.3327 18.853 12.8556 19.5065 12.407 20.182C11.9585 20.8576 11.5405 21.5493 11.153 22.257C10.7717 22.9627 10.4186 23.6861 10.0938 24.427L13.3143 25.7955L16.538 27.161L14.2468 23.8939Z" fill="#DF2929"/>
<path id="Vector_21" d="M16.1819 49.856C15.7558 49.2925 15.3541 48.7099 14.9768 48.1083C14.5995 47.5066 14.2513 46.8913 13.932 46.2625C13.6128 45.6357 13.3208 44.993 13.0561 44.3345C12.7938 43.6841 12.5601 43.0186 12.355 42.338L8.99463 43.334C9.22985 44.1106 9.49715 44.8709 9.79653 45.6148C10.099 46.3688 10.4332 47.1034 10.7993 47.8187C11.1654 48.534 11.563 49.2377 11.9922 49.9299C12.4219 50.6165 12.8801 51.2823 13.3669 51.9272C13.8536 52.5721 14.3694 53.1957 14.9142 53.7979L17.5314 51.4944L20.1486 49.1917L16.1819 49.856Z" fill="white"/>
<path id="Vector_22" d="M11.4912 38.2053C11.4067 37.4986 11.354 36.7949 11.3331 36.0942C11.3092 35.3839 11.3176 34.6802 11.3583 33.983C11.398 33.2753 11.4693 32.5743 11.5721 31.8801C11.675 31.186 11.8081 30.4938 11.9716 29.8037C12.135 29.1145 12.3287 28.4359 12.5528 27.7679L9.22373 26.6814C8.96916 27.4429 8.74718 28.2178 8.55777 29.0059C8.37194 29.7866 8.2192 30.5778 8.09955 31.3795C7.98346 32.1712 7.90251 32.9722 7.85669 33.7825C7.81086 34.5802 7.80068 35.3844 7.82614 36.1952C7.85159 36.9929 7.91218 37.7957 8.0079 38.6035C8.10413 39.4077 8.23396 40.2022 8.39739 40.9868L11.8295 40.2841L15.2616 39.5821L11.4912 38.2053Z" fill="white"/>
<path id="Vector_23" d="M35.3556 31.3079L24.1748 20.9443L31.8883 34.2424C32.1118 33.4719 32.5594 32.783 33.1758 32.2614C33.7922 31.7397 34.5501 31.4082 35.3556 31.3079Z" fill="#DF2929"/>
</g>
</g>
</svg>
