<svg width="26" height="26" viewBox="0 0 26 26" fill="none" xmlns="http://www.w3.org/2000/svg">
<g clip-path="url(#clip0_994_20)">
<path d="M13 0.5C16.3152 0.5 19.4946 1.81696 21.8388 4.16115C24.183 6.50535 25.5 9.68477 25.5 13C25.5 16.3152 24.183 19.4946 21.8388 21.8388C19.4946 24.183 16.3152 25.4999 13 25.4999C6.13256 25.4999 0.500072 19.8974 0.500072 13.0575C0.494482 11.4117 0.813569 9.78092 1.43906 8.25861C2.06456 6.73629 2.98418 5.3523 4.14526 4.18587C5.30635 3.01944 6.68611 2.09348 8.20554 1.461C9.72497 0.82853 11.3542 0.501963 13 0.5ZM1.23507 12.13L1.33007 12.16L2.02507 11.6025C2.27507 11.4125 2.48007 11.4075 2.62757 11.585C2.77507 11.7625 2.72257 11.9825 2.49257 12.17C2.12507 12.4675 1.75007 12.75 1.39257 13.0675C1.30689 13.1455 1.25564 13.2542 1.25007 13.37C1.25007 13.71 1.28507 14.0525 1.32507 14.39C1.58541 16.6671 2.51647 18.8155 4.00006 20.5624C4.04424 20.6062 4.09189 20.6464 4.14256 20.6824C4.18256 20.3349 4.21006 20.0224 4.25506 19.7099C4.29256 19.4424 4.45006 19.3174 4.67506 19.3499C4.90006 19.3824 5.00256 19.5524 4.97506 19.8199C4.92756 20.2899 4.86756 20.7599 4.83506 21.2299C4.82932 21.3519 4.87149 21.4712 4.95256 21.5624C6.66037 23.1863 8.82199 24.2518 11.15 24.6174C11.4775 24.6724 11.81 24.6974 12.2125 24.7474L11.62 23.9974C11.4125 23.7474 11.4 23.5299 11.58 23.3749C11.76 23.2199 11.9825 23.2774 12.2 23.5424C12.4875 23.8974 12.7675 24.2549 13.0625 24.6024C13.1323 24.6833 13.2311 24.7336 13.3375 24.7424C15.9782 24.6782 18.5181 23.7152 20.5375 22.0124C20.5905 21.962 20.6406 21.9086 20.6875 21.8524C20.325 21.8099 20.005 21.7799 19.6875 21.7349C19.6371 21.7338 19.5875 21.7223 19.5417 21.701C19.496 21.6798 19.4552 21.6493 19.4218 21.6115C19.3885 21.5736 19.3633 21.5293 19.348 21.4813C19.3326 21.4333 19.3273 21.3826 19.3325 21.3324C19.3398 21.2802 19.3579 21.23 19.3857 21.1851C19.4135 21.1402 19.4503 21.1016 19.4938 21.0718C19.5373 21.0419 19.5866 21.0214 19.6384 21.0116C19.6903 21.0018 19.7436 21.003 19.795 21.0149C20.265 21.0624 20.7375 21.1024 21.205 21.1674C21.2759 21.1824 21.3495 21.1772 21.4175 21.1525C21.4856 21.1277 21.5453 21.0844 21.59 21.0274C23.18 19.3312 24.231 17.2013 24.61 14.9075C24.67 14.5625 24.695 14.215 24.745 13.795L23.9825 14.4075C23.7475 14.595 23.525 14.6 23.38 14.4225C23.235 14.245 23.285 14.025 23.5175 13.8375C23.885 13.54 24.2675 13.25 24.6175 12.9425C24.697 12.8704 24.7447 12.7697 24.75 12.6625C24.6837 10.0317 23.7285 7.50095 22.04 5.48249C22.0008 5.41711 21.9713 5.34636 21.9525 5.27249L21.8575 5.35999C21.82 5.67999 21.79 6.00248 21.745 6.32248C21.7434 6.37292 21.7312 6.42246 21.7091 6.46783C21.687 6.51321 21.6556 6.5534 21.6169 6.58575C21.5781 6.6181 21.533 6.64189 21.4844 6.65554C21.4358 6.6692 21.3849 6.67242 21.335 6.66498C21.2846 6.65816 21.2362 6.64104 21.1928 6.61468C21.1493 6.58832 21.1117 6.55329 21.0824 6.51177C21.0531 6.47025 21.0327 6.42314 21.0223 6.37336C21.012 6.32359 21.0121 6.27223 21.0225 6.22248C21.0675 5.75248 21.1075 5.27999 21.175 4.81249C21.1909 4.73757 21.1856 4.65968 21.1595 4.58766C21.1334 4.51563 21.0877 4.45235 21.0275 4.40499C19.4723 2.94562 17.5466 1.94083 15.46 1.5C14.9375 1.3875 14.4025 1.33 13.8725 1.25L13.845 1.32C14.035 1.5575 14.2275 1.7925 14.415 2.03C14.6025 2.26749 14.5975 2.48749 14.415 2.62999C14.2325 2.77249 14.025 2.72249 13.8475 2.49999C13.5425 2.1275 13.25 1.75 12.935 1.3825C12.899 1.34283 12.8556 1.31069 12.8071 1.28795C12.7586 1.26521 12.706 1.25231 12.6525 1.25C10.1112 1.31849 7.66184 2.21571 5.67756 3.80499C5.55756 3.89999 5.44506 3.99999 5.28506 4.13749C5.67506 4.18249 5.99256 4.21249 6.31005 4.25749C6.36056 4.25791 6.41043 4.26889 6.45645 4.28971C6.50246 4.31054 6.54362 4.34075 6.57728 4.37841C6.61094 4.41607 6.63636 4.46035 6.65191 4.50841C6.66745 4.55647 6.67278 4.60725 6.66755 4.65749C6.66153 4.71 6.64447 4.76064 6.6175 4.80609C6.59053 4.85155 6.55426 4.89079 6.51106 4.92124C6.46786 4.95169 6.41871 4.97266 6.36684 4.98279C6.31496 4.99291 6.26153 4.99196 6.21006 4.97999C5.74006 4.93249 5.26756 4.89249 4.80006 4.82749C4.72898 4.8128 4.65521 4.81837 4.58714 4.84356C4.51907 4.86876 4.45945 4.91256 4.41506 4.96999C3.05683 6.41262 2.09184 8.1799 1.61257 10.1025C1.44507 10.7675 1.35757 11.4525 1.23507 12.13Z" fill="black"/>
<path d="M4.76758 13.0001C4.77058 11.3698 5.25743 9.77704 6.16645 8.42367C7.07546 7.0703 8.36573 6.0172 9.8738 5.39779C11.3819 4.77838 13.0398 4.62053 14.6377 4.94425C16.2355 5.26797 17.7014 6.05868 18.8494 7.21621C19.9975 8.37374 20.7761 9.846 21.0867 11.4465C21.3973 13.0469 21.2258 14.7035 20.594 16.2065C19.9623 17.7094 18.8986 18.991 17.5378 19.8888C16.177 20.7867 14.5803 21.2605 12.9501 21.2501C10.7737 21.2323 8.69263 20.3552 7.16003 18.81C5.62742 17.2647 4.76751 15.1765 4.76758 13.0001ZM5.50008 13.0001C5.50008 14.4834 5.93994 15.9335 6.76405 17.1668C7.58816 18.4002 8.75949 19.3615 10.1299 19.9292C11.5004 20.4968 13.0084 20.6453 14.4632 20.356C15.9181 20.0666 17.2544 19.3523 18.3033 18.3034C19.3522 17.2545 20.0665 15.9181 20.3559 14.4633C20.6453 13.0084 20.4968 11.5004 19.9291 10.13C19.3615 8.75953 18.4002 7.58819 17.1668 6.76408C15.9335 5.93997 14.4834 5.50011 13.0001 5.50011C11.0122 5.50407 9.10681 6.29552 7.70115 7.70118C6.29549 9.10684 5.50404 11.0122 5.50008 13.0001Z" fill="black"/>
<path d="M12.9996 19.6824C11.6783 19.6814 10.387 19.2884 9.28909 18.5532C8.19121 17.8179 7.33614 16.7735 6.83209 15.5521C6.32805 14.3307 6.1977 12.9872 6.45754 11.6917C6.71738 10.3962 7.35573 9.2069 8.2918 8.27434C9.22786 7.34178 10.4196 6.70789 11.716 6.45291C13.0125 6.19793 14.3555 6.33331 15.575 6.84193C16.7945 7.35054 17.8357 8.20953 18.5668 9.31015C19.2979 10.4108 19.686 11.7036 19.6821 13.0249C19.6774 14.7935 18.9711 16.4879 17.7182 17.7361C16.4653 18.9844 14.7682 19.6843 12.9996 19.6824ZM12.9996 11.1624C12.6351 11.1629 12.2789 11.2715 11.9761 11.4745C11.6734 11.6774 11.4376 11.9657 11.2987 12.3027C11.1597 12.6397 11.1239 13.0103 11.1957 13.3677C11.2675 13.7251 11.4436 14.0531 11.7019 14.3104C11.9602 14.5676 12.289 14.7424 12.6466 14.8128C13.0043 14.8831 13.3748 14.8457 13.7112 14.7054C14.0477 14.5651 14.3349 14.3282 14.5367 14.0246C14.7384 13.721 14.8456 13.3644 14.8446 12.9999C14.8446 12.7579 14.7968 12.5184 14.704 12.295C14.6112 12.0715 14.4752 11.8686 14.3038 11.6979C14.1323 11.5272 13.9289 11.392 13.7051 11.3001C13.4813 11.2082 13.2415 11.1614 12.9996 11.1624ZM15.4671 13.8074C15.8521 14.5249 16.2321 15.2049 16.5846 15.8974C16.6387 16.0137 16.7179 16.1166 16.8164 16.1987C16.915 16.2808 17.0304 16.3401 17.1546 16.3724C17.7896 16.5649 17.7896 16.5799 18.1246 15.9974C18.6748 15.0638 18.9551 13.9958 18.9346 12.9124C18.6371 12.8199 18.3546 12.7274 18.0721 12.6449C18.0065 12.6222 17.9352 12.6222 17.8696 12.6449C17.0821 13.0324 16.2896 13.4149 15.4771 13.8074H15.4671ZM10.5221 13.8074C9.71461 13.4174 8.92961 13.0374 8.14212 12.6624C8.08818 12.6348 8.02661 12.626 7.96712 12.6374C7.65962 12.7249 7.35712 12.8224 7.05212 12.9174C7.03439 14.0716 7.35509 15.2058 7.97462 16.1799C8.22462 16.5774 8.22462 16.5749 8.65961 16.4299C8.79961 16.3824 8.94461 16.3424 9.07961 16.2824C9.15795 16.2513 9.22506 16.1973 9.27211 16.1274C9.69461 15.3649 10.1046 14.6024 10.5321 13.8099L10.5221 13.8074ZM11.4721 10.8999C11.5971 9.99988 11.7221 9.12489 11.8346 8.25239C11.8379 8.19282 11.8212 8.13386 11.7871 8.08489C11.6146 7.83489 11.4371 7.58489 11.2521 7.33489C10.1321 7.67704 9.13861 8.34343 8.39711 9.24989C8.13462 9.56988 8.14712 9.57238 8.37712 9.89488C8.4507 10.0127 8.53434 10.124 8.62711 10.2274C8.71789 10.3239 8.83262 10.3946 8.95961 10.4324C9.78961 10.5974 10.6146 10.7499 11.4721 10.8999ZM12.9996 15.6024C12.5321 16.1024 12.1171 16.5824 11.6421 17.0049C11.4351 17.1685 11.2739 17.3831 11.1745 17.6276C11.075 17.872 11.0406 18.1381 11.0746 18.3999C11.0946 18.5824 11.1421 18.6499 11.3121 18.7024C12.3502 19.0101 13.4528 19.0265 14.4996 18.7499C14.9296 18.6374 14.9296 18.6349 14.9196 18.2049C14.9196 18.0474 14.9196 17.8899 14.9196 17.7324C14.918 17.6557 14.8927 17.5815 14.8471 17.5199C14.2346 16.8874 13.6296 16.2499 12.9996 15.6024ZM14.5296 10.8999C15.2271 10.7724 15.8846 10.6224 16.5521 10.5424C16.7802 10.5296 17.0016 10.4606 17.1966 10.3415C17.3916 10.2225 17.5541 10.057 17.6696 9.85988C17.8071 9.63738 17.8596 9.48988 17.6546 9.30989C17.6246 9.27783 17.597 9.24356 17.5721 9.20739C16.8334 8.31981 15.8529 7.66583 14.7496 7.32489C14.5646 7.57489 14.3871 7.82489 14.2146 8.07489C14.1805 8.12386 14.1638 8.18282 14.1671 8.24239C14.2896 9.12739 14.4096 9.99988 14.5346 10.9024L14.5296 10.8999ZM15.6421 18.3224C16.2311 18.0294 16.7668 17.6398 17.2271 17.1699C16.9921 17.0874 16.8071 17.0074 16.6146 16.9599C16.5003 16.9329 16.3939 16.8795 16.304 16.804C16.2142 16.7284 16.1433 16.6328 16.0971 16.5249C15.9096 16.1399 15.6946 15.7749 15.4921 15.3924L15.0821 14.6424L13.9171 15.4924C13.9471 15.5249 13.9996 15.5899 14.0596 15.6524C14.4771 16.0899 14.8796 16.5399 15.3096 16.9549C15.4294 17.0554 15.5225 17.184 15.5805 17.3293C15.6385 17.4746 15.6597 17.6319 15.6421 17.7874C15.6321 17.9424 15.6446 18.1049 15.6446 18.3224H15.6421ZM15.6421 12.9049C16.2996 12.5899 16.9771 12.2524 17.6696 11.9399C17.8198 11.8839 17.9828 11.8717 18.1396 11.9049C18.3859 11.9621 18.6287 12.033 18.8671 12.1174C18.7762 11.4713 18.5731 10.8461 18.2671 10.2699C18.1852 10.3652 18.1093 10.4654 18.0396 10.5699C17.9427 10.7494 17.8016 10.9012 17.6297 11.011C17.4577 11.1208 17.2607 11.1849 17.0571 11.1974C16.4196 11.2724 15.7896 11.4199 15.1921 11.5274L15.6421 12.9049ZM10.9296 14.6399C10.9071 14.6774 10.8621 14.7474 10.8221 14.8224C10.5146 15.3899 10.2021 15.9574 9.90711 16.5324C9.86113 16.636 9.79224 16.7279 9.70564 16.801C9.61904 16.8742 9.51697 16.9268 9.40711 16.9549C9.20211 17.0074 9.00461 17.0949 8.77711 17.1749C9.23424 17.6441 9.76978 18.0299 10.3596 18.3149C10.3596 18.0474 10.3596 17.8299 10.3596 17.6149C10.3514 17.5106 10.3677 17.4059 10.4072 17.3091C10.4467 17.2123 10.5083 17.1261 10.5871 17.0574C10.8821 16.7699 11.1571 16.4649 11.4421 16.1674L12.0946 15.4999L10.9296 14.6399ZM11.9996 7.10989C12.0893 7.24555 12.187 7.37577 12.2921 7.49989C12.4157 7.63395 12.5034 7.79705 12.5471 7.97405C12.5908 8.15105 12.5891 8.33622 12.5421 8.51239C12.4221 9.16239 12.3596 9.82238 12.2771 10.4549H13.7271C13.6346 9.76988 13.5446 9.05989 13.4371 8.35239C13.4087 8.2338 13.4081 8.11025 13.4355 7.99141C13.4628 7.87257 13.5173 7.76167 13.5946 7.66739C13.7271 7.51239 13.8446 7.33239 13.9996 7.09739L11.9996 7.10989ZM10.8046 11.5299C10.0996 11.3999 9.36211 11.2574 8.62211 11.1324C8.52736 11.1195 8.43659 11.086 8.35624 11.0341C8.27588 10.9823 8.2079 10.9134 8.15712 10.8324C8.03212 10.6474 7.88712 10.4724 7.72962 10.2649C7.42602 10.8426 7.22471 11.4685 7.13462 12.1149C7.25881 12.0851 7.38077 12.0466 7.49962 11.9999C7.68731 11.9096 7.89527 11.8698 8.10304 11.8842C8.31081 11.8987 8.51124 11.967 8.68461 12.0824C9.23961 12.3924 9.82711 12.6399 10.3646 12.8974L10.8046 11.5299Z" fill="black"/>
</g>
<defs>
<clipPath id="clip0_994_20">
<rect width="25" height="25" fill="white" transform="translate(0.5 0.5)"/>
</clipPath>
</defs>
</svg>
