<svg width="26" height="29" viewBox="0 0 26 29" fill="none" xmlns="http://www.w3.org/2000/svg">
<g clip-path="url(#clip0_994_40)">
<path fill-rule="evenodd" clip-rule="evenodd" d="M17.124 0.50017C17.9168 0.498889 18.6202 0.49776 19.2779 0.780771C19.9358 1.06377 20.456 1.59124 21.0424 2.18589C21.8895 3.04491 22.7376 3.90272 23.5871 4.75881C24.2582 5.43511 24.8541 6.03567 25.1783 6.85141C25.5026 7.66716 25.5012 8.56246 25.4998 9.57066C25.4967 11.6848 25.4996 13.799 25.4996 15.9132C25.4997 17.148 25.4997 18.2118 25.3969 19.0638C25.2867 19.9768 25.0383 20.8521 24.4012 21.5619C23.7642 22.2718 22.9787 22.5485 22.1594 22.6714C21.3948 22.7859 20.44 22.7859 19.3319 22.7857H14.1675C13.0594 22.7859 12.1047 22.7859 11.3401 22.6714C10.5207 22.5485 9.73529 22.2718 9.09821 21.5619C8.46115 20.8521 8.21273 19.9768 8.10257 19.0638C7.99977 18.2118 7.99982 17.148 7.99988 15.9132L7.9999 7.46453C7.9999 6.19072 7.99723 5.09525 8.10257 4.22229C8.21273 3.30926 8.46115 2.43407 9.09821 1.7242C9.73529 1.01432 10.5207 0.737496 11.3401 0.614745C12.1047 0.500212 13.0594 0.500268 14.1675 0.500337C14.1948 0.500337 14.2223 0.500337 14.2498 0.500337C15.2079 0.500337 16.1659 0.501702 17.124 0.50017Z" fill="black"/>
<path d="M17.9801 24.1784H14.1014C13.0467 24.1786 12.0218 24.1787 11.1736 24.0517C10.2164 23.9082 9.12277 23.5589 8.21436 22.5466C7.30595 21.5344 6.99242 20.3158 6.86373 19.2493C6.74968 18.304 6.74979 17.162 6.74991 15.9869V7.299C6.74986 6.88332 6.74982 6.4718 6.75483 6.07167C5.79541 6.07106 4.83023 6.03701 3.87584 6.16833C3.12493 6.27167 2.39786 6.50345 1.78008 7.106C1.65516 7.22785 1.53764 7.3588 1.42829 7.498C0.887534 8.18639 0.679525 8.99656 0.586789 9.83331C0.499916 10.6172 0.499953 11.5892 0.500003 12.7169V21.4845C0.499941 22.7193 0.499891 23.7831 0.602689 24.6351C0.712849 25.5482 0.96127 26.4233 1.59833 27.1332C2.23541 27.8431 3.02083 28.1199 3.84021 28.2426C4.60477 28.3572 5.55953 28.3571 6.66761 28.3571H12.8797C13.5012 28.3571 14.0374 28.3571 14.4798 28.3191C14.9463 28.2789 15.4112 28.1905 15.8629 27.9507C16.6393 27.5384 17.265 26.8413 17.635 25.976C17.8753 25.414 17.9525 24.7942 17.9801 24.1784Z" fill="black"/>
</g>
<defs>
<clipPath id="clip0_994_40">
<rect width="25" height="28" fill="white" transform="translate(0.5 0.5)"/>
</clipPath>
</defs>
</svg>
