<svg width="25" height="25" viewBox="0 0 25 25" fill="none" xmlns="http://www.w3.org/2000/svg">
<path d="M22.093 7.70301C21.9791 7.28041 21.7565 6.89501 21.4473 6.58518C21.1382 6.27534 20.7533 6.05187 20.331 5.93701C18.765 5.50701 12.5 5.50001 12.5 5.50001C12.5 5.50001 6.23596 5.49301 4.66896 5.90401C4.24689 6.02415 3.86279 6.25078 3.55353 6.56214C3.24427 6.8735 3.02025 7.25913 2.90296 7.68201C2.48996 9.24801 2.48596 12.496 2.48596 12.496C2.48596 12.496 2.48196 15.76 2.89196 17.31C3.12196 18.167 3.79696 18.844 4.65496 19.075C6.23696 19.505 12.485 19.512 12.485 19.512C12.485 19.512 18.75 19.519 20.316 19.109C20.7385 18.9943 21.1237 18.7714 21.4336 18.4622C21.7435 18.153 21.9673 17.7682 22.083 17.346C22.497 15.781 22.5 12.534 22.5 12.534C22.5 12.534 22.52 9.26901 22.093 7.70301ZM10.496 15.505L10.501 9.50501L15.708 12.51L10.496 15.505Z" fill="black"/>
</svg>
