<svg width="25" height="25" viewBox="0 0 25 25" fill="none" xmlns="http://www.w3.org/2000/svg">
<path d="M12.499 7.87701C11.2726 7.87701 10.0965 8.36418 9.22934 9.23135C8.36217 10.0985 7.875 11.2747 7.875 12.501C7.875 13.7274 8.36217 14.9035 9.22934 15.7707C10.0965 16.6378 11.2726 17.125 12.499 17.125C13.7254 17.125 14.9015 16.6378 15.7687 15.7707C16.6358 14.9035 17.123 13.7274 17.123 12.501C17.123 11.2747 16.6358 10.0985 15.7687 9.23135C14.9015 8.36418 13.7254 7.87701 12.499 7.87701ZM12.499 15.504C11.7023 15.504 10.9382 15.1875 10.3749 14.6242C9.81149 14.0608 9.495 13.2967 9.495 12.5C9.495 11.7033 9.81149 10.9392 10.3749 10.3759C10.9382 9.81251 11.7023 9.49601 12.499 9.49601C13.2957 9.49601 14.0598 9.81251 14.6231 10.3759C15.1865 10.9392 15.503 11.7033 15.503 12.5C15.503 13.2967 15.1865 14.0608 14.6231 14.6242C14.0598 15.1875 13.2957 15.504 12.499 15.504Z" fill="black"/>
<path d="M17.306 8.78503C17.9014 8.78503 18.384 8.30239 18.384 7.70703C18.384 7.11166 17.9014 6.62903 17.306 6.62903C16.7107 6.62903 16.228 7.11166 16.228 7.70703C16.228 8.30239 16.7107 8.78503 17.306 8.78503Z" fill="black"/>
<path d="M21.033 6.611C20.8015 6.01319 20.4477 5.47029 19.9943 5.01706C19.5409 4.56384 18.9979 4.21028 18.4 3.979C17.7003 3.71636 16.9611 3.57435 16.214 3.559C15.251 3.517 14.946 3.505 12.504 3.505C10.062 3.505 9.74895 3.505 8.79395 3.559C8.04734 3.57356 7.30871 3.71561 6.60995 3.979C6.01189 4.21001 5.46872 4.56348 5.01529 5.01673C4.56186 5.46999 4.20818 6.01303 3.97695 6.611C3.71426 7.31062 3.57257 8.04984 3.55795 8.797C3.51495 9.759 3.50195 10.064 3.50195 12.507C3.50195 14.949 3.50195 15.26 3.55795 16.217C3.57295 16.965 3.71395 17.703 3.97695 18.404C4.20883 19.0018 4.56285 19.5446 5.01639 19.9978C5.46993 20.451 6.01302 20.8046 6.61095 21.036C7.30839 21.3092 8.04732 21.4614 8.79595 21.486C9.75895 21.528 10.064 21.541 12.506 21.541C14.948 21.541 15.261 21.541 16.216 21.486C16.9631 21.4708 17.7022 21.3291 18.402 21.067C18.9997 20.8352 19.5426 20.4813 19.9959 20.028C20.4493 19.5746 20.8031 19.0318 21.035 18.434C21.298 17.734 21.439 16.996 21.454 16.248C21.497 15.286 21.51 14.981 21.51 12.538C21.51 10.095 21.51 9.785 21.454 8.828C21.4423 8.07028 21.2999 7.32025 21.033 6.611ZM19.815 16.143C19.8085 16.7193 19.7033 17.2902 19.504 17.831C19.3538 18.2199 19.1239 18.573 18.829 18.8677C18.5342 19.1624 18.1809 19.3921 17.792 19.542C17.2572 19.7405 16.6923 19.8456 16.122 19.853C15.172 19.897 14.904 19.908 12.468 19.908C10.03 19.908 9.78095 19.908 8.81295 19.853C8.24288 19.846 7.67828 19.7408 7.14395 19.542C6.75364 19.393 6.39895 19.1637 6.10284 18.869C5.80673 18.5742 5.57579 18.2206 5.42495 17.831C5.2284 17.2961 5.12326 16.7318 5.11395 16.162C5.07095 15.212 5.06095 14.944 5.06095 12.508C5.06095 10.071 5.06095 9.822 5.11395 8.853C5.12042 8.27703 5.22561 7.70642 5.42495 7.166C5.72995 6.377 6.35495 5.756 7.14395 5.454C7.67854 5.25614 8.24298 5.15097 8.81295 5.143C9.76395 5.1 10.031 5.088 12.468 5.088C14.905 5.088 15.155 5.088 16.122 5.143C16.6924 5.14987 17.2573 5.25508 17.792 5.454C18.1809 5.60428 18.5341 5.83421 18.8289 6.12903C19.1238 6.42386 19.3537 6.77708 19.504 7.166C19.7005 7.70095 19.8056 8.26516 19.815 8.835C19.858 9.786 19.869 10.053 19.869 12.49C19.869 14.926 19.869 15.188 19.826 16.144H19.815V16.143Z" fill="black"/>
</svg>
