<svg width="0" height="0" class="hidden">
  <symbol xmlns="http://www.w3.org/2000/svg" viewBox="0 0 25 25" id="icon-instagram">
    <path d="M12.499 7.87701C11.2726 7.87701 10.0965 8.36418 9.22934 9.23135C8.36217 10.0985 7.875 11.2747 7.875 12.501C7.875 13.7274 8.36217 14.9035 9.22934 15.7707C10.0965 16.6378 11.2726 17.125 12.499 17.125C13.7254 17.125 14.9015 16.6378 15.7687 15.7707C16.6358 14.9035 17.123 13.7274 17.123 12.501C17.123 11.2747 16.6358 10.0985 15.7687 9.23135C14.9015 8.36418 13.7254 7.87701 12.499 7.87701ZM12.499 15.504C11.7023 15.504 10.9382 15.1875 10.3749 14.6242C9.81149 14.0608 9.495 13.2967 9.495 12.5C9.495 11.7033 9.81149 10.9392 10.3749 10.3759C10.9382 9.81251 11.7023 9.49601 12.499 9.49601C13.2957 9.49601 14.0598 9.81251 14.6231 10.3759C15.1865 10.9392 15.503 11.7033 15.503 12.5C15.503 13.2967 15.1865 14.0608 14.6231 14.6242C14.0598 15.1875 13.2957 15.504 12.499 15.504Z"></path>
    <path d="M17.306 8.78503C17.9014 8.78503 18.384 8.30239 18.384 7.70703C18.384 7.11166 17.9014 6.62903 17.306 6.62903C16.7107 6.62903 16.228 7.11166 16.228 7.70703C16.228 8.30239 16.7107 8.78503 17.306 8.78503Z"></path>
    <path d="M21.033 6.611C20.8015 6.01319 20.4477 5.47029 19.9943 5.01706C19.5409 4.56384 18.9979 4.21028 18.4 3.979C17.7003 3.71636 16.9611 3.57435 16.214 3.559C15.251 3.517 14.946 3.505 12.504 3.505C10.062 3.505 9.74895 3.505 8.79395 3.559C8.04734 3.57356 7.30871 3.71561 6.60995 3.979C6.01189 4.21001 5.46872 4.56348 5.01529 5.01673C4.56186 5.46999 4.20818 6.01303 3.97695 6.611C3.71426 7.31062 3.57257 8.04984 3.55795 8.797C3.51495 9.759 3.50195 10.064 3.50195 12.507C3.50195 14.949 3.50195 15.26 3.55795 16.217C3.57295 16.965 3.71395 17.703 3.97695 18.404C4.20883 19.0018 4.56285 19.5446 5.01639 19.9978C5.46993 20.451 6.01302 20.8046 6.61095 21.036C7.30839 21.3092 8.04732 21.4614 8.79595 21.486C9.75895 21.528 10.064 21.541 12.506 21.541C14.948 21.541 15.261 21.541 16.216 21.486C16.9631 21.4708 17.7022 21.3291 18.402 21.067C18.9997 20.8352 19.5426 20.4813 19.9959 20.028C20.4493 19.5746 20.8031 19.0318 21.035 18.434C21.298 17.734 21.439 16.996 21.454 16.248C21.497 15.286 21.51 14.981 21.51 12.538C21.51 10.095 21.51 9.785 21.454 8.828C21.4423 8.07028 21.2999 7.32025 21.033 6.611ZM19.815 16.143C19.8085 16.7193 19.7033 17.2902 19.504 17.831C19.3538 18.2199 19.1239 18.573 18.829 18.8677C18.5342 19.1624 18.1809 19.3921 17.792 19.542C17.2572 19.7405 16.6923 19.8456 16.122 19.853C15.172 19.897 14.904 19.908 12.468 19.908C10.03 19.908 9.78095 19.908 8.81295 19.853C8.24288 19.846 7.67828 19.7408 7.14395 19.542C6.75364 19.393 6.39895 19.1637 6.10284 18.869C5.80673 18.5742 5.57579 18.2206 5.42495 17.831C5.2284 17.2961 5.12326 16.7318 5.11395 16.162C5.07095 15.212 5.06095 14.944 5.06095 12.508C5.06095 10.071 5.06095 9.822 5.11395 8.853C5.12042 8.27703 5.22561 7.70642 5.42495 7.166C5.72995 6.377 6.35495 5.756 7.14395 5.454C7.67854 5.25614 8.24298 5.15097 8.81295 5.143C9.76395 5.1 10.031 5.088 12.468 5.088C14.905 5.088 15.155 5.088 16.122 5.143C16.6924 5.14987 17.2573 5.25508 17.792 5.454C18.1809 5.60428 18.5341 5.83421 18.8289 6.12903C19.1238 6.42386 19.3537 6.77708 19.504 7.166C19.7005 7.70095 19.8056 8.26516 19.815 8.835C19.858 9.786 19.869 10.053 19.869 12.49C19.869 14.926 19.869 15.188 19.826 16.144H19.815V16.143Z"></path>
  </symbol>
  <symbol xmlns="http://www.w3.org/2000/svg" viewBox="0 0 33 27" id="icon-mone">
    <g clip-path="url(#clip0_994_43)">
      <path d="M11.431 11.5575C7.45442 15.7269 2.95222 17.8872 1.37207 16.3821L3.02229 17.9538C4.59964 19.4597 9.10464 17.2993 13.0841 13.1293C17.0635 8.95919 19.008 4.35889 17.43 2.85302L15.7826 1.28058C17.3599 2.78645 15.4133 7.38745 11.431 11.5575Z"></path>
      <path d="M11.0331 11.175C14.9684 7.05186 16.8793 2.4894 15.302 0.983529L15.0974 0.788726C15.131 0.82096 15.1618 0.854595 15.192 0.889631C13.5256 -0.426342 9.16567 1.69197 5.32076 5.72468C1.47585 9.75738 -0.43855 14.207 0.953102 15.8103C0.917365 15.7816 0.883029 15.7521 0.848693 15.7206L1.05261 15.9161C2.62995 17.4206 7.09852 15.2988 11.0331 11.175Z"></path>
      <path d="M24.2349 14.008C22.2539 9.80367 21.9379 5.78848 23.5286 5.0387L21.8671 5.82141C20.2772 6.57049 20.5932 10.5864 22.5735 14.7907C24.5537 18.9951 27.4491 21.7981 29.0398 21.0469L30.7012 20.2649C29.1099 21.0139 26.2166 18.2124 24.2349 14.008Z"></path>
      <path d="M24.6384 13.8181C26.5963 17.9755 29.4735 20.7385 31.0641 19.9887L31.2694 19.892C31.2358 19.9078 31.2015 19.9218 31.1664 19.9341C32.638 19.0631 32.3128 15.1691 30.3956 11.1049C28.4784 7.04061 25.6881 4.30776 24.0778 4.89006C24.1096 4.8709 24.1424 4.85336 24.1759 4.83751L23.9741 4.93421C22.3814 5.68539 22.6799 9.66064 24.6384 13.8181Z"></path>
      <path d="M15.5185 24.1973C11.4893 25.3591 7.86648 25.0655 7.42712 23.5414L7.8861 25.1335C8.32546 26.6576 11.9504 26.9512 15.9775 25.7894C20.0046 24.6276 22.9147 22.4497 22.4775 20.9256L22.0185 19.3336C22.4578 20.8576 19.5477 23.0355 15.5185 24.1973Z"></path>
      <path d="M15.407 23.8105C19.3906 22.6613 22.2643 20.4947 21.825 18.9699L21.7682 18.773C21.7773 18.8052 21.7843 18.8381 21.7906 18.8711C21.2252 17.4332 17.711 17.1669 13.8149 18.2909C9.9189 19.4148 7.08655 21.5107 7.37314 23.0285C7.36123 22.997 7.34932 22.9662 7.34021 22.9339L7.39697 23.1308C7.83633 24.6549 11.4226 24.9597 15.407 23.8105Z"></path>
    </g>
    <defs>
      <clipPath id="clip0_994_43">
        <rect width="32" height="26" transform="translate(0.5 0.5)"></rect>
      </clipPath>
    </defs>
  </symbol>
  <symbol fill="none" xmlns="http://www.w3.org/2000/svg" viewBox="0 0 24 28" id="icon-shield">
    <path d="M12 26.5C12 26.5 1.5 22.9286 1.5 14" stroke="black" stroke-linecap="round" stroke-linejoin="round"></path>
    <path d="M1.5 14V3.28571C1.5 3.28571 5 1.5 12 1.5" stroke="black" stroke-linecap="round" stroke-linejoin="round"></path>
    <path d="M12 26.5C12 26.5 22.5 22.9286 22.5 14" stroke="black" stroke-linecap="round" stroke-linejoin="round"></path>
    <path d="M22.5 14V3.28571C22.5 3.28571 19 1.5 12 1.5" stroke="black" stroke-linecap="round" stroke-linejoin="round"></path>
    <path d="M12 26.5V1.5" stroke="black" stroke-linecap="round" stroke-linejoin="round"></path>
  </symbol>
  <symbol fill="none" xmlns="http://www.w3.org/2000/svg" viewBox="0 0 20 25" id="icon-suspension">
    <g clip-path="url(#clip0_994_4)">
      <path d="M2.46403 1.10494L0.711684 6.00831C0.594788 6.33541 0.760385 6.69709 1.08156 6.81614L2.745 7.43276C3.06617 7.55181 3.4213 7.38316 3.53819 7.05606L5.29054 2.15269C5.40744 1.82559 5.24184 1.46392 4.92067 1.34486L3.25722 0.728245C2.93605 0.609191 2.58093 0.777844 2.46403 1.10494Z" fill="black"></path>
      <path d="M16.3336 1.09225L14.5813 5.99562C14.4644 6.32272 14.63 6.68439 14.9512 6.80345L16.6146 7.42006C16.9358 7.53912 17.2909 7.37046 17.4078 7.04337L19.1602 2.13999C19.277 1.8129 19.1115 1.45122 18.7903 1.33217L17.1268 0.71555C16.8057 0.596496 16.4505 0.765149 16.3336 1.09225Z" fill="black"></path>
      <path d="M3.88467 18.0214H2.11446C1.77268 18.0214 1.49561 18.3035 1.49561 18.6516V23.8697C1.49561 24.2178 1.77268 24.5 2.11446 24.5H3.88467C4.22645 24.5 4.50352 24.2178 4.50352 23.8697V18.6516C4.50352 18.3035 4.22645 18.0214 3.88467 18.0214Z" fill="black"></path>
      <path d="M17.7587 18.0214H15.9885C15.6467 18.0214 15.3696 18.3035 15.3696 18.6516V23.8697C15.3696 24.2178 15.6467 24.5 15.9885 24.5H17.7587C18.1005 24.5 18.3775 24.2178 18.3775 23.8697V18.6516C18.3775 18.3035 18.1005 18.0214 17.7587 18.0214Z" fill="black"></path>
      <path d="M16.5063 4.09673C16.5063 4.1564 16.4947 4.21549 16.4723 4.27062C16.4499 4.32575 16.417 4.37584 16.3756 4.41803C16.3342 4.46022 16.285 4.49369 16.2308 4.51653C16.1767 4.53936 16.1187 4.55112 16.0601 4.55112H3.55352C3.49494 4.55112 3.43692 4.53936 3.38279 4.51653C3.32866 4.49369 3.27948 4.46022 3.23805 4.41803C3.19662 4.37584 3.16376 4.32575 3.14134 4.27062C3.11891 4.21549 3.10737 4.1564 3.10737 4.09673C3.10343 4.03464 3.11205 3.97239 3.1327 3.91383C3.15335 3.85528 3.18559 3.80166 3.22742 3.75631C3.26925 3.71097 3.31978 3.67485 3.37587 3.6502C3.43197 3.62556 3.49243 3.61291 3.55352 3.61304H15.9882C16.1065 3.61304 16.22 3.66091 16.3036 3.74612C16.3873 3.83134 16.4343 3.94691 16.4343 4.06742L16.5063 4.09673Z" fill="black"></path>
      <path d="M16.5066 21.2021C16.5066 21.3226 16.4596 21.4382 16.3759 21.5234C16.2923 21.6086 16.1788 21.6565 16.0604 21.6565H3.55386C3.44317 21.6456 3.34048 21.5929 3.26594 21.5088C3.19139 21.4248 3.15036 21.3154 3.15088 21.2021C3.16362 21.0992 3.21054 21.0039 3.28384 20.9319C3.35715 20.8599 3.45243 20.8156 3.55386 20.8064H15.9885C16.0482 20.796 16.1094 20.7982 16.1683 20.8127C16.2272 20.8272 16.2826 20.8538 16.3311 20.8908C16.3796 20.9278 16.4201 20.9745 16.4503 21.0281C16.4805 21.0816 16.4996 21.1408 16.5066 21.2021Z" fill="black"></path>
      <path d="M10.2461 3.96484H9.39697V21.5831H10.2461V3.96484Z" fill="black"></path>
      <path d="M10.8361 4.09683C10.8361 4.30266 10.7762 4.50387 10.6639 4.675C10.5516 4.84614 10.3921 4.97953 10.2053 5.0583C10.0186 5.13706 9.81317 5.15767 9.61496 5.11752C9.41674 5.07736 9.23467 4.97825 9.09177 4.83271C8.94886 4.68716 8.85154 4.50173 8.81212 4.29986C8.77269 4.09799 8.79292 3.88874 8.87026 3.69858C8.9476 3.50842 9.07857 3.34589 9.24661 3.23154C9.41465 3.11719 9.61221 3.05615 9.81431 3.05615C10.0853 3.05615 10.3452 3.1658 10.5368 3.36096C10.7285 3.55613 10.8361 3.82083 10.8361 4.09683Z" fill="black"></path>
      <path d="M10.8361 21.2021C10.8361 21.4079 10.7762 21.6091 10.6639 21.7802C10.5516 21.9514 10.3921 22.0848 10.2053 22.1635C10.0186 22.2423 9.81317 22.2629 9.61496 22.2227C9.41674 22.1826 9.23467 22.0835 9.09177 21.9379C8.94886 21.7924 8.85154 21.607 8.81212 21.4051C8.77269 21.2032 8.79292 20.994 8.87026 20.8038C8.9476 20.6136 9.07857 20.4511 9.24661 20.3368C9.41465 20.2224 9.61221 20.1614 9.81431 20.1614C10.0853 20.1614 10.3452 20.271 10.5368 20.4662C10.7285 20.6614 10.8361 20.9261 10.8361 21.2021Z" fill="black"></path>
      <path d="M11.095 12.7887C11.095 14.9433 10.5337 16.7022 9.84292 16.7022C9.15211 16.7022 8.59082 14.9433 8.59082 12.7887C8.59082 10.634 9.15211 8.86047 9.84292 8.86047C10.5337 8.86047 11.095 10.6194 11.095 12.7887Z" fill="black"></path>
    </g>
    <defs>
      <clipPath id="clip0_994_4">
        <rect width="19" height="24" fill="white" transform="translate(0.5 0.5)"></rect>
      </clipPath>
    </defs>
  </symbol>
  <symbol xmlns="http://www.w3.org/2000/svg" viewBox="0 0 25 25" id="icon-telegram">
    <path d="M21.165 4.217L3.43497 11.054C2.22497 11.54 2.23197 12.215 3.21297 12.516L7.76497 13.936L18.297 7.291C18.795 6.988 19.25 7.151 18.876 7.483L10.343 15.184H10.341L10.343 15.185L10.029 19.877C10.489 19.877 10.692 19.666 10.95 19.417L13.161 17.267L17.76 20.664C18.608 21.131 19.217 20.891 19.428 19.879L22.447 5.651C22.756 4.412 21.974 3.851 21.165 4.217Z"></path>
  </symbol>
  <symbol xmlns="http://www.w3.org/2000/svg" viewBox="0 0 13 10" id="icon-triangle">
    <g clip-path="url(#clip0_994_2)">
      <path d="M6.49998 9.5L1.30383 0.5L11.6962 0.500001L6.49998 9.5Z"></path>
    </g>
    <defs>
      <clipPath id="clip0_994_2">
        <rect width="12" height="9" fill="white" transform="translate(0.5 0.5)"></rect>
      </clipPath>
    </defs>
  </symbol>
  <symbol xmlns="http://www.w3.org/2000/svg" viewBox="0 0 25 25" id="icon-vk">
    <path d="M22.079 7.35501C22.219 6.89001 22.079 6.54901 21.417 6.54901H19.224C18.666 6.54901 18.411 6.84401 18.271 7.16801C18.271 7.16801 17.156 9.88701 15.576 11.65C15.066 12.163 14.833 12.325 14.555 12.325C14.416 12.325 14.214 12.163 14.214 11.698V7.35501C14.214 6.79701 14.053 6.54901 13.588 6.54901H10.142C9.794 6.54901 9.584 6.80701 9.584 7.05301C9.584 7.58101 10.374 7.70301 10.455 9.19101V12.419C10.455 13.126 10.328 13.255 10.048 13.255C9.305 13.255 7.497 10.526 6.424 7.40201C6.215 6.79501 6.004 6.55001 5.444 6.55001H3.252C2.625 6.55001 2.5 6.84501 2.5 7.16901C2.5 7.75101 3.243 10.631 5.961 14.44C7.773 17.041 10.324 18.451 12.648 18.451C14.041 18.451 14.213 18.138 14.213 17.598V15.632C14.213 15.006 14.346 14.88 14.787 14.88C15.111 14.88 15.669 15.044 16.97 16.297C18.456 17.783 18.702 18.45 19.537 18.45H21.729C22.355 18.45 22.668 18.137 22.488 17.519C22.291 16.904 21.581 16.009 20.639 14.95C20.127 14.346 19.362 13.696 19.129 13.371C18.804 12.952 18.898 12.767 19.129 12.395C19.13 12.396 21.801 8.63401 22.079 7.35501Z"></path>
  </symbol>
  <symbol fill="none" xmlns="http://www.w3.org/2000/svg" viewBox="0 0 30 29" id="icon-helmet">
    <g clip-path="url(#clip0_994_15)">
      <path d="M26.4279 9.16654C26.4214 9.13901 26.4125 9.1121 26.4013 9.08612C25.4273 6.59027 23.7395 4.44061 21.5511 2.90864C19.3149 1.33625 16.651 0.495185 13.9222 0.500021C6.52062 0.500021 0.5 6.6013 0.5 14.1009C0.5 16.0382 1.08662 17.4493 2.25426 20.2614C2.43249 20.6848 2.62616 21.1574 2.83387 21.6654C2.87166 21.7572 2.93031 21.8389 3.00513 21.9038C3.07995 21.9688 3.16885 22.0152 3.26471 22.0393C6.3059 22.8083 12.2311 24.3605 17.4588 25.7306C21.081 26.6802 24.2092 27.4986 25.5382 27.8372C25.5886 27.8507 25.6405 27.8573 25.6926 27.857C25.7962 27.857 25.8982 27.8312 25.9895 27.782C26.0809 27.7327 26.1587 27.6616 26.216 27.5748L26.4799 27.1854C27.3991 25.8364 28.6566 23.988 28.9064 21.6739C28.9064 21.6513 28.9064 21.6273 28.9064 21.6047C28.9092 19.6787 27.1184 11.9731 26.4279 9.16654ZM27.5759 20.7666L14.9972 17.4521L14.3109 15.8139C14.2745 15.7265 14.219 15.6484 14.1486 15.5854C14.0781 15.5224 13.9945 15.476 13.9039 15.4498C13.2593 15.2614 12.7038 14.8454 12.3397 14.2783C11.9755 13.7112 11.8271 13.0311 11.9216 12.3628C12.0162 11.6945 12.3474 11.0829 12.8543 10.6404C13.3613 10.1979 14.0101 9.95414 14.6814 9.9539H25.3193C26.1824 13.521 27.2896 18.5259 27.5759 20.7666ZM25.4371 26.4714L25.4203 26.4968C23.9215 26.1116 21.0515 25.3595 17.7773 24.5016C12.7251 23.1766 7.0062 21.6795 3.88361 20.8865C3.72082 20.4886 3.56644 20.1189 3.42189 19.7718C2.28233 17.033 1.76307 15.7828 1.76307 14.1009C1.76307 7.30117 7.21811 1.76994 13.9222 1.76994C16.2072 1.76569 18.4466 2.41302 20.3804 3.63682C22.3142 4.86062 23.8633 6.6107 24.8477 8.68397H14.6814C13.7323 8.68403 12.8134 9.01908 12.0849 9.63068C11.3564 10.2423 10.8645 11.0916 10.6951 12.0305C10.5257 12.9695 10.6895 13.9384 11.158 14.7683C11.6264 15.5982 12.3698 16.2364 13.2584 16.5716L13.9601 18.2338C13.9977 18.3232 14.0552 18.4028 14.1282 18.4664C14.2012 18.53 14.2877 18.576 14.3811 18.6007L27.5731 22.0774C27.2321 23.8313 26.2469 25.2833 25.4371 26.4714Z" fill="black"></path>
      <path d="M14.5535 3.95698C14.5535 3.78858 14.487 3.62708 14.3686 3.508C14.2501 3.38892 14.0895 3.32202 13.922 3.32202C8.0684 3.32202 3.30664 8.15761 3.30664 14.1009C3.30664 14.2693 3.37318 14.4308 3.49161 14.5498C3.61005 14.6689 3.77068 14.7358 3.93817 14.7358C4.10567 14.7358 4.2663 14.6689 4.38474 14.5498C4.50317 14.4308 4.56971 14.2693 4.56971 14.1009C4.56971 8.85748 8.76449 4.59195 13.922 4.59195C14.0895 4.59195 14.2501 4.52505 14.3686 4.40597C14.487 4.28689 14.5535 4.12539 14.5535 3.95698Z" fill="black"></path>
      <path d="M19.7127 11.8842C19.6442 11.8373 19.5671 11.8044 19.486 11.7875C19.4048 11.7706 19.3212 11.7701 19.2398 11.7858C19.1584 11.8015 19.0809 11.8333 19.0118 11.8792C18.9426 11.9252 18.8832 11.9844 18.8369 12.0536L16.8287 15.0421C16.7483 15.1816 16.7238 15.3466 16.76 15.5036C16.7962 15.6607 16.8904 15.798 17.0236 15.8877C17.1568 15.9775 17.3189 16.0129 17.4771 15.9869C17.6353 15.9609 17.7778 15.8754 17.8756 15.7476L19.8825 12.7591C19.9745 12.6202 20.0083 12.4504 19.9765 12.2866C19.9447 12.1228 19.8499 11.9782 19.7127 11.8842Z" fill="black"></path>
      <path d="M23.8585 11.8841C23.7899 11.8371 23.7127 11.8042 23.6315 11.7873C23.5502 11.7704 23.4664 11.7698 23.3849 11.7855C23.3034 11.8013 23.2258 11.833 23.1565 11.879C23.0873 11.925 23.0277 11.9843 22.9813 12.0534L20.305 16.0368C20.2586 16.1057 20.2261 16.1833 20.2095 16.2649C20.193 16.3465 20.1925 16.4306 20.2083 16.5124C20.2241 16.5942 20.2557 16.672 20.3015 16.7415C20.3472 16.811 20.4061 16.8707 20.4748 16.9172C20.5791 16.9886 20.7024 17.0265 20.8285 17.0259C20.9321 17.0257 21.0341 16.9999 21.1254 16.9507C21.2167 16.9015 21.2945 16.8304 21.352 16.7437L24.0283 12.7618C24.1212 12.6226 24.1554 12.4522 24.1236 12.2877C24.0918 12.1232 23.9964 11.9781 23.8585 11.8841Z" fill="black"></path>
    </g>
    <defs>
      <clipPath id="clip0_994_15">
        <rect width="29" height="28" fill="white" transform="translate(0.5 0.5)"></rect>
      </clipPath>
    </defs>
  </symbol>
  <symbol xmlns="http://www.w3.org/2000/svg" viewBox="0 0 25 25" id="icon-youtube">
    <path d="M22.093 7.70301C21.9791 7.28041 21.7565 6.89501 21.4473 6.58518C21.1382 6.27534 20.7533 6.05187 20.331 5.93701C18.765 5.50701 12.5 5.50001 12.5 5.50001C12.5 5.50001 6.23596 5.49301 4.66896 5.90401C4.24689 6.02415 3.86279 6.25078 3.55353 6.56214C3.24427 6.8735 3.02025 7.25913 2.90296 7.68201C2.48996 9.24801 2.48596 12.496 2.48596 12.496C2.48596 12.496 2.48196 15.76 2.89196 17.31C3.12196 18.167 3.79696 18.844 4.65496 19.075C6.23696 19.505 12.485 19.512 12.485 19.512C12.485 19.512 18.75 19.519 20.316 19.109C20.7385 18.9943 21.1237 18.7714 21.4336 18.4622C21.7435 18.153 21.9673 17.7682 22.083 17.346C22.497 15.781 22.5 12.534 22.5 12.534C22.5 12.534 22.52 9.26901 22.093 7.70301ZM10.496 15.505L10.501 9.50501L15.708 12.51L10.496 15.505Z"></path>
  </symbol>
  <symbol fill="none" xmlns="http://www.w3.org/2000/svg" viewBox="0 0 25 25" id="icon-cup">
    <path id="Vector" fill-rule="evenodd" clip-rule="evenodd" d="M20 0C20.7313 0 21.3064 0.625033 21.2457 1.35381L21.15 2.5H23.75C24.4404 2.5 25 3.05964 25 3.75V8.75C25 11.4988 22.7818 13.7295 20.0378 13.7499C19.4353 15.9758 18.1142 17.9614 16.25 19.3914L16.2487 22.5H21.25C21.9404 22.5 22.5 23.0596 22.5 23.75C22.5 24.4404 21.9404 25 21.25 25H3.75C3.05964 25 2.5 24.4404 2.5 23.75C2.5 23.0596 3.05964 22.5 3.75 22.5H8.74875L8.75 19.3925L8.45869 19.1616C6.75383 17.7611 5.53431 15.8661 4.96128 13.7498C2.30268 13.729 0.139073 11.6353 0.00644326 9.00606L0 8.75V3.75C0 3.10896 0.48255 2.58062 1.10422 2.50841L1.25 2.5H3.84875L3.75432 1.35381C3.69359 0.625033 4.2687 0 5 0H20ZM18.6415 2.5H6.3585L7.1214 11.6548C7.3262 14.1124 8.6415 16.342 10.6934 17.7099C11.0411 17.9418 11.25 18.3321 11.25 18.75V22.5H13.75V18.75C13.75 18.3405 13.9506 17.9569 14.287 17.7233L14.5593 17.5345C16.4691 16.1537 17.6826 14.0064 17.8786 11.6548L18.6415 2.5ZM4.0575 5H2.5V8.75C2.5 9.98632 3.39742 11.013 4.57639 11.2143L4.0575 5ZM22.5 8.75V5H20.9412L20.4236 11.2143C21.6026 11.013 22.5 9.98632 22.5 8.75Z" fill="white"></path>
  </symbol>
  <symbol xmlns="http://www.w3.org/2000/svg" viewBox="0 0 26 29" id="icon-docs">
    <g clip-path="url(#clip0_994_40)">
      <path fill-rule="evenodd" clip-rule="evenodd" d="M17.124 0.50017C17.9168 0.498889 18.6202 0.49776 19.2779 0.780771C19.9358 1.06377 20.456 1.59124 21.0424 2.18589C21.8895 3.04491 22.7376 3.90272 23.5871 4.75881C24.2582 5.43511 24.8541 6.03567 25.1783 6.85141C25.5026 7.66716 25.5012 8.56246 25.4998 9.57066C25.4967 11.6848 25.4996 13.799 25.4996 15.9132C25.4997 17.148 25.4997 18.2118 25.3969 19.0638C25.2867 19.9768 25.0383 20.8521 24.4012 21.5619C23.7642 22.2718 22.9787 22.5485 22.1594 22.6714C21.3948 22.7859 20.44 22.7859 19.3319 22.7857H14.1675C13.0594 22.7859 12.1047 22.7859 11.3401 22.6714C10.5207 22.5485 9.73529 22.2718 9.09821 21.5619C8.46115 20.8521 8.21273 19.9768 8.10257 19.0638C7.99977 18.2118 7.99982 17.148 7.99988 15.9132L7.9999 7.46453C7.9999 6.19072 7.99723 5.09525 8.10257 4.22229C8.21273 3.30926 8.46115 2.43407 9.09821 1.7242C9.73529 1.01432 10.5207 0.737496 11.3401 0.614745C12.1047 0.500212 13.0594 0.500268 14.1675 0.500337C14.1948 0.500337 14.2223 0.500337 14.2498 0.500337C15.2079 0.500337 16.1659 0.501702 17.124 0.50017Z"></path>
      <path d="M17.9801 24.1784H14.1014C13.0467 24.1786 12.0218 24.1787 11.1736 24.0517C10.2164 23.9082 9.12277 23.5589 8.21436 22.5466C7.30595 21.5344 6.99242 20.3158 6.86373 19.2493C6.74968 18.304 6.74979 17.162 6.74991 15.9869V7.299C6.74986 6.88332 6.74982 6.4718 6.75483 6.07167C5.79541 6.07106 4.83023 6.03701 3.87584 6.16833C3.12493 6.27167 2.39786 6.50345 1.78008 7.106C1.65516 7.22785 1.53764 7.3588 1.42829 7.498C0.887534 8.18639 0.679525 8.99656 0.586789 9.83331C0.499916 10.6172 0.499953 11.5892 0.500003 12.7169V21.4845C0.499941 22.7193 0.499891 23.7831 0.602689 24.6351C0.712849 25.5482 0.96127 26.4233 1.59833 27.1332C2.23541 27.8431 3.02083 28.1199 3.84021 28.2426C4.60477 28.3572 5.55953 28.3571 6.66761 28.3571H12.8797C13.5012 28.3571 14.0374 28.3571 14.4798 28.3191C14.9463 28.2789 15.4112 28.1905 15.8629 27.9507C16.6393 27.5384 17.265 26.8413 17.635 25.976C17.8753 25.414 17.9525 24.7942 17.9801 24.1784Z"></path>
    </g>
    <defs>
      <clipPath id="clip0_994_40">
        <rect width="25" height="28" transform="translate(0.5 0.5)"></rect>
      </clipPath>
    </defs>
  </symbol>
  <symbol xmlns="http://www.w3.org/2000/svg" viewBox="0 0 26 26" id="icon-wheel">
    <g clip-path="url(#clip0_994_20)">
      <path d="M13 0.5C16.3152 0.5 19.4946 1.81696 21.8388 4.16115C24.183 6.50535 25.5 9.68477 25.5 13C25.5 16.3152 24.183 19.4946 21.8388 21.8388C19.4946 24.183 16.3152 25.4999 13 25.4999C6.13256 25.4999 0.500072 19.8974 0.500072 13.0575C0.494482 11.4117 0.813569 9.78092 1.43906 8.25861C2.06456 6.73629 2.98418 5.3523 4.14526 4.18587C5.30635 3.01944 6.68611 2.09348 8.20554 1.461C9.72497 0.82853 11.3542 0.501963 13 0.5ZM1.23507 12.13L1.33007 12.16L2.02507 11.6025C2.27507 11.4125 2.48007 11.4075 2.62757 11.585C2.77507 11.7625 2.72257 11.9825 2.49257 12.17C2.12507 12.4675 1.75007 12.75 1.39257 13.0675C1.30689 13.1455 1.25564 13.2542 1.25007 13.37C1.25007 13.71 1.28507 14.0525 1.32507 14.39C1.58541 16.6671 2.51647 18.8155 4.00006 20.5624C4.04424 20.6062 4.09189 20.6464 4.14256 20.6824C4.18256 20.3349 4.21006 20.0224 4.25506 19.7099C4.29256 19.4424 4.45006 19.3174 4.67506 19.3499C4.90006 19.3824 5.00256 19.5524 4.97506 19.8199C4.92756 20.2899 4.86756 20.7599 4.83506 21.2299C4.82932 21.3519 4.87149 21.4712 4.95256 21.5624C6.66037 23.1863 8.82199 24.2518 11.15 24.6174C11.4775 24.6724 11.81 24.6974 12.2125 24.7474L11.62 23.9974C11.4125 23.7474 11.4 23.5299 11.58 23.3749C11.76 23.2199 11.9825 23.2774 12.2 23.5424C12.4875 23.8974 12.7675 24.2549 13.0625 24.6024C13.1323 24.6833 13.2311 24.7336 13.3375 24.7424C15.9782 24.6782 18.5181 23.7152 20.5375 22.0124C20.5905 21.962 20.6406 21.9086 20.6875 21.8524C20.325 21.8099 20.005 21.7799 19.6875 21.7349C19.6371 21.7338 19.5875 21.7223 19.5417 21.701C19.496 21.6798 19.4552 21.6493 19.4218 21.6115C19.3885 21.5736 19.3633 21.5293 19.348 21.4813C19.3326 21.4333 19.3273 21.3826 19.3325 21.3324C19.3398 21.2802 19.3579 21.23 19.3857 21.1851C19.4135 21.1402 19.4503 21.1016 19.4938 21.0718C19.5373 21.0419 19.5866 21.0214 19.6384 21.0116C19.6903 21.0018 19.7436 21.003 19.795 21.0149C20.265 21.0624 20.7375 21.1024 21.205 21.1674C21.2759 21.1824 21.3495 21.1772 21.4175 21.1525C21.4856 21.1277 21.5453 21.0844 21.59 21.0274C23.18 19.3312 24.231 17.2013 24.61 14.9075C24.67 14.5625 24.695 14.215 24.745 13.795L23.9825 14.4075C23.7475 14.595 23.525 14.6 23.38 14.4225C23.235 14.245 23.285 14.025 23.5175 13.8375C23.885 13.54 24.2675 13.25 24.6175 12.9425C24.697 12.8704 24.7447 12.7697 24.75 12.6625C24.6837 10.0317 23.7285 7.50095 22.04 5.48249C22.0008 5.41711 21.9713 5.34636 21.9525 5.27249L21.8575 5.35999C21.82 5.67999 21.79 6.00248 21.745 6.32248C21.7434 6.37292 21.7312 6.42246 21.7091 6.46783C21.687 6.51321 21.6556 6.5534 21.6169 6.58575C21.5781 6.6181 21.533 6.64189 21.4844 6.65554C21.4358 6.6692 21.3849 6.67242 21.335 6.66498C21.2846 6.65816 21.2362 6.64104 21.1928 6.61468C21.1493 6.58832 21.1117 6.55329 21.0824 6.51177C21.0531 6.47025 21.0327 6.42314 21.0223 6.37336C21.012 6.32359 21.0121 6.27223 21.0225 6.22248C21.0675 5.75248 21.1075 5.27999 21.175 4.81249C21.1909 4.73757 21.1856 4.65968 21.1595 4.58766C21.1334 4.51563 21.0877 4.45235 21.0275 4.40499C19.4723 2.94562 17.5466 1.94083 15.46 1.5C14.9375 1.3875 14.4025 1.33 13.8725 1.25L13.845 1.32C14.035 1.5575 14.2275 1.7925 14.415 2.03C14.6025 2.26749 14.5975 2.48749 14.415 2.62999C14.2325 2.77249 14.025 2.72249 13.8475 2.49999C13.5425 2.1275 13.25 1.75 12.935 1.3825C12.899 1.34283 12.8556 1.31069 12.8071 1.28795C12.7586 1.26521 12.706 1.25231 12.6525 1.25C10.1112 1.31849 7.66184 2.21571 5.67756 3.80499C5.55756 3.89999 5.44506 3.99999 5.28506 4.13749C5.67506 4.18249 5.99256 4.21249 6.31005 4.25749C6.36056 4.25791 6.41043 4.26889 6.45645 4.28971C6.50246 4.31054 6.54362 4.34075 6.57728 4.37841C6.61094 4.41607 6.63636 4.46035 6.65191 4.50841C6.66745 4.55647 6.67278 4.60725 6.66755 4.65749C6.66153 4.71 6.64447 4.76064 6.6175 4.80609C6.59053 4.85155 6.55426 4.89079 6.51106 4.92124C6.46786 4.95169 6.41871 4.97266 6.36684 4.98279C6.31496 4.99291 6.26153 4.99196 6.21006 4.97999C5.74006 4.93249 5.26756 4.89249 4.80006 4.82749C4.72898 4.8128 4.65521 4.81837 4.58714 4.84356C4.51907 4.86876 4.45945 4.91256 4.41506 4.96999C3.05683 6.41262 2.09184 8.1799 1.61257 10.1025C1.44507 10.7675 1.35757 11.4525 1.23507 12.13Z"></path>
      <path d="M4.76758 13.0001C4.77058 11.3698 5.25743 9.77704 6.16645 8.42367C7.07546 7.0703 8.36573 6.0172 9.8738 5.39779C11.3819 4.77838 13.0398 4.62053 14.6377 4.94425C16.2355 5.26797 17.7014 6.05868 18.8494 7.21621C19.9975 8.37374 20.7761 9.846 21.0867 11.4465C21.3973 13.0469 21.2258 14.7035 20.594 16.2065C19.9623 17.7094 18.8986 18.991 17.5378 19.8888C16.177 20.7867 14.5803 21.2605 12.9501 21.2501C10.7737 21.2323 8.69263 20.3552 7.16003 18.81C5.62742 17.2647 4.76751 15.1765 4.76758 13.0001ZM5.50008 13.0001C5.50008 14.4834 5.93994 15.9335 6.76405 17.1668C7.58816 18.4002 8.75949 19.3615 10.1299 19.9292C11.5004 20.4968 13.0084 20.6453 14.4632 20.356C15.9181 20.0666 17.2544 19.3523 18.3033 18.3034C19.3522 17.2545 20.0665 15.9181 20.3559 14.4633C20.6453 13.0084 20.4968 11.5004 19.9291 10.13C19.3615 8.75953 18.4002 7.58819 17.1668 6.76408C15.9335 5.93997 14.4834 5.50011 13.0001 5.50011C11.0122 5.50407 9.10681 6.29552 7.70115 7.70118C6.29549 9.10684 5.50404 11.0122 5.50008 13.0001Z"></path>
      <path d="M12.9996 19.6824C11.6783 19.6814 10.387 19.2884 9.28909 18.5532C8.19121 17.8179 7.33614 16.7735 6.83209 15.5521C6.32805 14.3307 6.1977 12.9872 6.45754 11.6917C6.71738 10.3962 7.35573 9.2069 8.2918 8.27434C9.22786 7.34178 10.4196 6.70789 11.716 6.45291C13.0125 6.19793 14.3555 6.33331 15.575 6.84193C16.7945 7.35054 17.8357 8.20953 18.5668 9.31015C19.2979 10.4108 19.686 11.7036 19.6821 13.0249C19.6774 14.7935 18.9711 16.4879 17.7182 17.7361C16.4653 18.9844 14.7682 19.6843 12.9996 19.6824ZM12.9996 11.1624C12.6351 11.1629 12.2789 11.2715 11.9761 11.4745C11.6734 11.6774 11.4376 11.9657 11.2987 12.3027C11.1597 12.6397 11.1239 13.0103 11.1957 13.3677C11.2675 13.7251 11.4436 14.0531 11.7019 14.3104C11.9602 14.5676 12.289 14.7424 12.6466 14.8128C13.0043 14.8831 13.3748 14.8457 13.7112 14.7054C14.0477 14.5651 14.3349 14.3282 14.5367 14.0246C14.7384 13.721 14.8456 13.3644 14.8446 12.9999C14.8446 12.7579 14.7968 12.5184 14.704 12.295C14.6112 12.0715 14.4752 11.8686 14.3038 11.6979C14.1323 11.5272 13.9289 11.392 13.7051 11.3001C13.4813 11.2082 13.2415 11.1614 12.9996 11.1624ZM15.4671 13.8074C15.8521 14.5249 16.2321 15.2049 16.5846 15.8974C16.6387 16.0137 16.7179 16.1166 16.8164 16.1987C16.915 16.2808 17.0304 16.3401 17.1546 16.3724C17.7896 16.5649 17.7896 16.5799 18.1246 15.9974C18.6748 15.0638 18.9551 13.9958 18.9346 12.9124C18.6371 12.8199 18.3546 12.7274 18.0721 12.6449C18.0065 12.6222 17.9352 12.6222 17.8696 12.6449C17.0821 13.0324 16.2896 13.4149 15.4771 13.8074H15.4671ZM10.5221 13.8074C9.71461 13.4174 8.92961 13.0374 8.14212 12.6624C8.08818 12.6348 8.02661 12.626 7.96712 12.6374C7.65962 12.7249 7.35712 12.8224 7.05212 12.9174C7.03439 14.0716 7.35509 15.2058 7.97462 16.1799C8.22462 16.5774 8.22462 16.5749 8.65961 16.4299C8.79961 16.3824 8.94461 16.3424 9.07961 16.2824C9.15795 16.2513 9.22506 16.1973 9.27211 16.1274C9.69461 15.3649 10.1046 14.6024 10.5321 13.8099L10.5221 13.8074ZM11.4721 10.8999C11.5971 9.99988 11.7221 9.12489 11.8346 8.25239C11.8379 8.19282 11.8212 8.13386 11.7871 8.08489C11.6146 7.83489 11.4371 7.58489 11.2521 7.33489C10.1321 7.67704 9.13861 8.34343 8.39711 9.24989C8.13462 9.56988 8.14712 9.57238 8.37712 9.89488C8.4507 10.0127 8.53434 10.124 8.62711 10.2274C8.71789 10.3239 8.83262 10.3946 8.95961 10.4324C9.78961 10.5974 10.6146 10.7499 11.4721 10.8999ZM12.9996 15.6024C12.5321 16.1024 12.1171 16.5824 11.6421 17.0049C11.4351 17.1685 11.2739 17.3831 11.1745 17.6276C11.075 17.872 11.0406 18.1381 11.0746 18.3999C11.0946 18.5824 11.1421 18.6499 11.3121 18.7024C12.3502 19.0101 13.4528 19.0265 14.4996 18.7499C14.9296 18.6374 14.9296 18.6349 14.9196 18.2049C14.9196 18.0474 14.9196 17.8899 14.9196 17.7324C14.918 17.6557 14.8927 17.5815 14.8471 17.5199C14.2346 16.8874 13.6296 16.2499 12.9996 15.6024ZM14.5296 10.8999C15.2271 10.7724 15.8846 10.6224 16.5521 10.5424C16.7802 10.5296 17.0016 10.4606 17.1966 10.3415C17.3916 10.2225 17.5541 10.057 17.6696 9.85988C17.8071 9.63738 17.8596 9.48988 17.6546 9.30989C17.6246 9.27783 17.597 9.24356 17.5721 9.20739C16.8334 8.31981 15.8529 7.66583 14.7496 7.32489C14.5646 7.57489 14.3871 7.82489 14.2146 8.07489C14.1805 8.12386 14.1638 8.18282 14.1671 8.24239C14.2896 9.12739 14.4096 9.99988 14.5346 10.9024L14.5296 10.8999ZM15.6421 18.3224C16.2311 18.0294 16.7668 17.6398 17.2271 17.1699C16.9921 17.0874 16.8071 17.0074 16.6146 16.9599C16.5003 16.9329 16.3939 16.8795 16.304 16.804C16.2142 16.7284 16.1433 16.6328 16.0971 16.5249C15.9096 16.1399 15.6946 15.7749 15.4921 15.3924L15.0821 14.6424L13.9171 15.4924C13.9471 15.5249 13.9996 15.5899 14.0596 15.6524C14.4771 16.0899 14.8796 16.5399 15.3096 16.9549C15.4294 17.0554 15.5225 17.184 15.5805 17.3293C15.6385 17.4746 15.6597 17.6319 15.6421 17.7874C15.6321 17.9424 15.6446 18.1049 15.6446 18.3224H15.6421ZM15.6421 12.9049C16.2996 12.5899 16.9771 12.2524 17.6696 11.9399C17.8198 11.8839 17.9828 11.8717 18.1396 11.9049C18.3859 11.9621 18.6287 12.033 18.8671 12.1174C18.7762 11.4713 18.5731 10.8461 18.2671 10.2699C18.1852 10.3652 18.1093 10.4654 18.0396 10.5699C17.9427 10.7494 17.8016 10.9012 17.6297 11.011C17.4577 11.1208 17.2607 11.1849 17.0571 11.1974C16.4196 11.2724 15.7896 11.4199 15.1921 11.5274L15.6421 12.9049ZM10.9296 14.6399C10.9071 14.6774 10.8621 14.7474 10.8221 14.8224C10.5146 15.3899 10.2021 15.9574 9.90711 16.5324C9.86113 16.636 9.79224 16.7279 9.70564 16.801C9.61904 16.8742 9.51697 16.9268 9.40711 16.9549C9.20211 17.0074 9.00461 17.0949 8.77711 17.1749C9.23424 17.6441 9.76978 18.0299 10.3596 18.3149C10.3596 18.0474 10.3596 17.8299 10.3596 17.6149C10.3514 17.5106 10.3677 17.4059 10.4072 17.3091C10.4467 17.2123 10.5083 17.1261 10.5871 17.0574C10.8821 16.7699 11.1571 16.4649 11.4421 16.1674L12.0946 15.4999L10.9296 14.6399ZM11.9996 7.10989C12.0893 7.24555 12.187 7.37577 12.2921 7.49989C12.4157 7.63395 12.5034 7.79705 12.5471 7.97405C12.5908 8.15105 12.5891 8.33622 12.5421 8.51239C12.4221 9.16239 12.3596 9.82238 12.2771 10.4549H13.7271C13.6346 9.76988 13.5446 9.05989 13.4371 8.35239C13.4087 8.2338 13.4081 8.11025 13.4355 7.99141C13.4628 7.87257 13.5173 7.76167 13.5946 7.66739C13.7271 7.51239 13.8446 7.33239 13.9996 7.09739L11.9996 7.10989ZM10.8046 11.5299C10.0996 11.3999 9.36211 11.2574 8.62211 11.1324C8.52736 11.1195 8.43659 11.086 8.35624 11.0341C8.27588 10.9823 8.2079 10.9134 8.15712 10.8324C8.03212 10.6474 7.88712 10.4724 7.72962 10.2649C7.42602 10.8426 7.22471 11.4685 7.13462 12.1149C7.25881 12.0851 7.38077 12.0466 7.49962 11.9999C7.68731 11.9096 7.89527 11.8698 8.10304 11.8842C8.31081 11.8987 8.51124 11.967 8.68461 12.0824C9.23961 12.3924 9.82711 12.6399 10.3646 12.8974L10.8046 11.5299Z"></path>
    </g>
    <defs>
      <clipPath id="clip0_994_20">
        <rect width="25" height="25" transform="translate(0.5 0.5)"></rect>
      </clipPath>
    </defs>
  </symbol>
</svg>