<svg width="25" height="25" viewBox="0 0 25 25" fill="none" xmlns="http://www.w3.org/2000/svg">
<path id="Vector" fill-rule="evenodd" clip-rule="evenodd" d="M20 0C20.7313 0 21.3064 0.625033 21.2457 1.35381L21.15 2.5H23.75C24.4404 2.5 25 3.05964 25 3.75V8.75C25 11.4988 22.7818 13.7295 20.0378 13.7499C19.4353 15.9758 18.1142 17.9614 16.25 19.3914L16.2487 22.5H21.25C21.9404 22.5 22.5 23.0596 22.5 23.75C22.5 24.4404 21.9404 25 21.25 25H3.75C3.05964 25 2.5 24.4404 2.5 23.75C2.5 23.0596 3.05964 22.5 3.75 22.5H8.74875L8.75 19.3925L8.45869 19.1616C6.75383 17.7611 5.53431 15.8661 4.96128 13.7498C2.30268 13.729 0.139073 11.6353 0.00644326 9.00606L0 8.75V3.75C0 3.10896 0.48255 2.58062 1.10422 2.50841L1.25 2.5H3.84875L3.75432 1.35381C3.69359 0.625033 4.2687 0 5 0H20ZM18.6415 2.5H6.3585L7.1214 11.6548C7.3262 14.1124 8.6415 16.342 10.6934 17.7099C11.0411 17.9418 11.25 18.3321 11.25 18.75V22.5H13.75V18.75C13.75 18.3405 13.9506 17.9569 14.287 17.7233L14.5593 17.5345C16.4691 16.1537 17.6826 14.0064 17.8786 11.6548L18.6415 2.5ZM4.0575 5H2.5V8.75C2.5 9.98632 3.39742 11.013 4.57639 11.2143L4.0575 5ZM22.5 8.75V5H20.9412L20.4236 11.2143C21.6026 11.013 22.5 9.98632 22.5 8.75Z" fill="white"/>
</svg>
