<svg width="25" height="25" viewBox="0 0 25 25" xmlns="http://www.w3.org/2000/svg">
<path d="M22.079 7.35501C22.219 6.89001 22.079 6.54901 21.417 6.54901H19.224C18.666 6.54901 18.411 6.84401 18.271 7.16801C18.271 7.16801 17.156 9.88701 15.576 11.65C15.066 12.163 14.833 12.325 14.555 12.325C14.416 12.325 14.214 12.163 14.214 11.698V7.35501C14.214 6.79701 14.053 6.54901 13.588 6.54901H10.142C9.794 6.54901 9.584 6.80701 9.584 7.05301C9.584 7.58101 10.374 7.70301 10.455 9.19101V12.419C10.455 13.126 10.328 13.255 10.048 13.255C9.305 13.255 7.497 10.526 6.424 7.40201C6.215 6.79501 6.004 6.55001 5.444 6.55001H3.252C2.625 6.55001 2.5 6.84501 2.5 7.16901C2.5 7.75101 3.243 10.631 5.961 14.44C7.773 17.041 10.324 18.451 12.648 18.451C14.041 18.451 14.213 18.138 14.213 17.598V15.632C14.213 15.006 14.346 14.88 14.787 14.88C15.111 14.88 15.669 15.044 16.97 16.297C18.456 17.783 18.702 18.45 19.537 18.45H21.729C22.355 18.45 22.668 18.137 22.488 17.519C22.291 16.904 21.581 16.009 20.639 14.95C20.127 14.346 19.362 13.696 19.129 13.371C18.804 12.952 18.898 12.767 19.129 12.395C19.13 12.396 21.801 8.63401 22.079 7.35501Z" />
</svg>
