<svg width="20" height="25" viewBox="0 0 20 25" fill="none" xmlns="http://www.w3.org/2000/svg">
<g clip-path="url(#clip0_994_4)">
<path d="M2.46403 1.10494L0.711684 6.00831C0.594788 6.33541 0.760385 6.69709 1.08156 6.81614L2.745 7.43276C3.06617 7.55181 3.4213 7.38316 3.53819 7.05606L5.29054 2.15269C5.40744 1.82559 5.24184 1.46392 4.92067 1.34486L3.25722 0.728245C2.93605 0.609191 2.58093 0.777844 2.46403 1.10494Z" fill="black"/>
<path d="M16.3336 1.09225L14.5813 5.99562C14.4644 6.32272 14.63 6.68439 14.9512 6.80345L16.6146 7.42006C16.9358 7.53912 17.2909 7.37046 17.4078 7.04337L19.1602 2.13999C19.277 1.8129 19.1115 1.45122 18.7903 1.33217L17.1268 0.71555C16.8057 0.596496 16.4505 0.765149 16.3336 1.09225Z" fill="black"/>
<path d="M3.88467 18.0214H2.11446C1.77268 18.0214 1.49561 18.3035 1.49561 18.6516V23.8697C1.49561 24.2178 1.77268 24.5 2.11446 24.5H3.88467C4.22645 24.5 4.50352 24.2178 4.50352 23.8697V18.6516C4.50352 18.3035 4.22645 18.0214 3.88467 18.0214Z" fill="black"/>
<path d="M17.7587 18.0214H15.9885C15.6467 18.0214 15.3696 18.3035 15.3696 18.6516V23.8697C15.3696 24.2178 15.6467 24.5 15.9885 24.5H17.7587C18.1005 24.5 18.3775 24.2178 18.3775 23.8697V18.6516C18.3775 18.3035 18.1005 18.0214 17.7587 18.0214Z" fill="black"/>
<path d="M16.5063 4.09673C16.5063 4.1564 16.4947 4.21549 16.4723 4.27062C16.4499 4.32575 16.417 4.37584 16.3756 4.41803C16.3342 4.46022 16.285 4.49369 16.2308 4.51653C16.1767 4.53936 16.1187 4.55112 16.0601 4.55112H3.55352C3.49494 4.55112 3.43692 4.53936 3.38279 4.51653C3.32866 4.49369 3.27948 4.46022 3.23805 4.41803C3.19662 4.37584 3.16376 4.32575 3.14134 4.27062C3.11891 4.21549 3.10737 4.1564 3.10737 4.09673C3.10343 4.03464 3.11205 3.97239 3.1327 3.91383C3.15335 3.85528 3.18559 3.80166 3.22742 3.75631C3.26925 3.71097 3.31978 3.67485 3.37587 3.6502C3.43197 3.62556 3.49243 3.61291 3.55352 3.61304H15.9882C16.1065 3.61304 16.22 3.66091 16.3036 3.74612C16.3873 3.83134 16.4343 3.94691 16.4343 4.06742L16.5063 4.09673Z" fill="black"/>
<path d="M16.5066 21.2021C16.5066 21.3226 16.4596 21.4382 16.3759 21.5234C16.2923 21.6086 16.1788 21.6565 16.0604 21.6565H3.55386C3.44317 21.6456 3.34048 21.5929 3.26594 21.5088C3.19139 21.4248 3.15036 21.3154 3.15088 21.2021C3.16362 21.0992 3.21054 21.0039 3.28384 20.9319C3.35715 20.8599 3.45243 20.8156 3.55386 20.8064H15.9885C16.0482 20.796 16.1094 20.7982 16.1683 20.8127C16.2272 20.8272 16.2826 20.8538 16.3311 20.8908C16.3796 20.9278 16.4201 20.9745 16.4503 21.0281C16.4805 21.0816 16.4996 21.1408 16.5066 21.2021Z" fill="black"/>
<path d="M10.2461 3.96484H9.39697V21.5831H10.2461V3.96484Z" fill="black"/>
<path d="M10.8361 4.09683C10.8361 4.30266 10.7762 4.50387 10.6639 4.675C10.5516 4.84614 10.3921 4.97953 10.2053 5.0583C10.0186 5.13706 9.81317 5.15767 9.61496 5.11752C9.41674 5.07736 9.23467 4.97825 9.09177 4.83271C8.94886 4.68716 8.85154 4.50173 8.81212 4.29986C8.77269 4.09799 8.79292 3.88874 8.87026 3.69858C8.9476 3.50842 9.07857 3.34589 9.24661 3.23154C9.41465 3.11719 9.61221 3.05615 9.81431 3.05615C10.0853 3.05615 10.3452 3.1658 10.5368 3.36096C10.7285 3.55613 10.8361 3.82083 10.8361 4.09683Z" fill="black"/>
<path d="M10.8361 21.2021C10.8361 21.4079 10.7762 21.6091 10.6639 21.7802C10.5516 21.9514 10.3921 22.0848 10.2053 22.1635C10.0186 22.2423 9.81317 22.2629 9.61496 22.2227C9.41674 22.1826 9.23467 22.0835 9.09177 21.9379C8.94886 21.7924 8.85154 21.607 8.81212 21.4051C8.77269 21.2032 8.79292 20.994 8.87026 20.8038C8.9476 20.6136 9.07857 20.4511 9.24661 20.3368C9.41465 20.2224 9.61221 20.1614 9.81431 20.1614C10.0853 20.1614 10.3452 20.271 10.5368 20.4662C10.7285 20.6614 10.8361 20.9261 10.8361 21.2021Z" fill="black"/>
<path d="M11.095 12.7887C11.095 14.9433 10.5337 16.7022 9.84292 16.7022C9.15211 16.7022 8.59082 14.9433 8.59082 12.7887C8.59082 10.634 9.15211 8.86047 9.84292 8.86047C10.5337 8.86047 11.095 10.6194 11.095 12.7887Z" fill="black"/>
</g>
<defs>
<clipPath id="clip0_994_4">
<rect width="19" height="24" fill="white" transform="translate(0.5 0.5)"/>
</clipPath>
</defs>
</svg>
