<svg width="30" height="29" viewBox="0 0 30 29" fill="none" xmlns="http://www.w3.org/2000/svg">
<g clip-path="url(#clip0_994_15)">
<path d="M26.4279 9.16654C26.4214 9.13901 26.4125 9.1121 26.4013 9.08612C25.4273 6.59027 23.7395 4.44061 21.5511 2.90864C19.3149 1.33625 16.651 0.495185 13.9222 0.500021C6.52062 0.500021 0.5 6.6013 0.5 14.1009C0.5 16.0382 1.08662 17.4493 2.25426 20.2614C2.43249 20.6848 2.62616 21.1574 2.83387 21.6654C2.87166 21.7572 2.93031 21.8389 3.00513 21.9038C3.07995 21.9688 3.16885 22.0152 3.26471 22.0393C6.3059 22.8083 12.2311 24.3605 17.4588 25.7306C21.081 26.6802 24.2092 27.4986 25.5382 27.8372C25.5886 27.8507 25.6405 27.8573 25.6926 27.857C25.7962 27.857 25.8982 27.8312 25.9895 27.782C26.0809 27.7327 26.1587 27.6616 26.216 27.5748L26.4799 27.1854C27.3991 25.8364 28.6566 23.988 28.9064 21.6739C28.9064 21.6513 28.9064 21.6273 28.9064 21.6047C28.9092 19.6787 27.1184 11.9731 26.4279 9.16654ZM27.5759 20.7666L14.9972 17.4521L14.3109 15.8139C14.2745 15.7265 14.219 15.6484 14.1486 15.5854C14.0781 15.5224 13.9945 15.476 13.9039 15.4498C13.2593 15.2614 12.7038 14.8454 12.3397 14.2783C11.9755 13.7112 11.8271 13.0311 11.9216 12.3628C12.0162 11.6945 12.3474 11.0829 12.8543 10.6404C13.3613 10.1979 14.0101 9.95414 14.6814 9.9539H25.3193C26.1824 13.521 27.2896 18.5259 27.5759 20.7666ZM25.4371 26.4714L25.4203 26.4968C23.9215 26.1116 21.0515 25.3595 17.7773 24.5016C12.7251 23.1766 7.0062 21.6795 3.88361 20.8865C3.72082 20.4886 3.56644 20.1189 3.42189 19.7718C2.28233 17.033 1.76307 15.7828 1.76307 14.1009C1.76307 7.30117 7.21811 1.76994 13.9222 1.76994C16.2072 1.76569 18.4466 2.41302 20.3804 3.63682C22.3142 4.86062 23.8633 6.6107 24.8477 8.68397H14.6814C13.7323 8.68403 12.8134 9.01908 12.0849 9.63068C11.3564 10.2423 10.8645 11.0916 10.6951 12.0305C10.5257 12.9695 10.6895 13.9384 11.158 14.7683C11.6264 15.5982 12.3698 16.2364 13.2584 16.5716L13.9601 18.2338C13.9977 18.3232 14.0552 18.4028 14.1282 18.4664C14.2012 18.53 14.2877 18.576 14.3811 18.6007L27.5731 22.0774C27.2321 23.8313 26.2469 25.2833 25.4371 26.4714Z" fill="black"/>
<path d="M14.5535 3.95698C14.5535 3.78858 14.487 3.62708 14.3686 3.508C14.2501 3.38892 14.0895 3.32202 13.922 3.32202C8.0684 3.32202 3.30664 8.15761 3.30664 14.1009C3.30664 14.2693 3.37318 14.4308 3.49161 14.5498C3.61005 14.6689 3.77068 14.7358 3.93817 14.7358C4.10567 14.7358 4.2663 14.6689 4.38474 14.5498C4.50317 14.4308 4.56971 14.2693 4.56971 14.1009C4.56971 8.85748 8.76449 4.59195 13.922 4.59195C14.0895 4.59195 14.2501 4.52505 14.3686 4.40597C14.487 4.28689 14.5535 4.12539 14.5535 3.95698Z" fill="black"/>
<path d="M19.7127 11.8842C19.6442 11.8373 19.5671 11.8044 19.486 11.7875C19.4048 11.7706 19.3212 11.7701 19.2398 11.7858C19.1584 11.8015 19.0809 11.8333 19.0118 11.8792C18.9426 11.9252 18.8832 11.9844 18.8369 12.0536L16.8287 15.0421C16.7483 15.1816 16.7238 15.3466 16.76 15.5036C16.7962 15.6607 16.8904 15.798 17.0236 15.8877C17.1568 15.9775 17.3189 16.0129 17.4771 15.9869C17.6353 15.9609 17.7778 15.8754 17.8756 15.7476L19.8825 12.7591C19.9745 12.6202 20.0083 12.4504 19.9765 12.2866C19.9447 12.1228 19.8499 11.9782 19.7127 11.8842Z" fill="black"/>
<path d="M23.8585 11.8841C23.7899 11.8371 23.7127 11.8042 23.6315 11.7873C23.5502 11.7704 23.4664 11.7698 23.3849 11.7855C23.3034 11.8013 23.2258 11.833 23.1565 11.879C23.0873 11.925 23.0277 11.9843 22.9813 12.0534L20.305 16.0368C20.2586 16.1057 20.2261 16.1833 20.2095 16.2649C20.193 16.3465 20.1925 16.4306 20.2083 16.5124C20.2241 16.5942 20.2557 16.672 20.3015 16.7415C20.3472 16.811 20.4061 16.8707 20.4748 16.9172C20.5791 16.9886 20.7024 17.0265 20.8285 17.0259C20.9321 17.0257 21.0341 16.9999 21.1254 16.9507C21.2167 16.9015 21.2945 16.8304 21.352 16.7437L24.0283 12.7618C24.1212 12.6226 24.1554 12.4522 24.1236 12.2877C24.0918 12.1232 23.9964 11.9781 23.8585 11.8841Z" fill="black"/>
</g>
<defs>
<clipPath id="clip0_994_15">
<rect width="29" height="28" fill="white" transform="translate(0.5 0.5)"/>
</clipPath>
</defs>
</svg>
